<svg version="1.1" id="Layer_1"
	xmlns="http://www.w3.org/2000/svg"
	xmlns:xlink="http://www.w3.org/1999/xlink" x="0px" y="0px" width="100%" viewBox="0 0 512 512" enable-background="new 0 0 512 512" xml:space="preserve">
	<path fill="#000000" opacity="1.000000" stroke="none" d="
M277.000000,513.000000 
	C184.689072,513.000000 92.878143,513.000000 1.033606,513.000000 
	C1.033606,342.397369 1.033606,171.794754 1.033606,1.096060 
	C171.560944,1.096060 342.121979,1.096060 512.841492,1.096060 
	C512.841492,171.666550 512.841492,342.333252 512.841492,513.000000 
	C434.461395,513.000000 355.980682,513.000000 277.000000,513.000000 
M470.942749,427.934723 
	C476.598694,427.952576 482.257111,427.876862 487.909576,428.026489 
	C490.881989,428.105164 492.118958,427.016479 492.026123,423.973053 
	C491.843628,417.990234 491.885010,412.000519 491.932434,405.079254 
	C491.828979,379.047668 491.725525,353.016113 491.727661,326.037537 
	C491.733704,290.038849 491.735291,254.040176 491.747009,218.041504 
	C491.758087,184.042786 491.677032,150.043579 491.845276,116.045609 
	C491.916809,101.592102 477.717926,85.793884 462.009247,85.876099 
	C404.846161,86.175285 347.680603,85.984123 290.515961,86.000900 
	C275.019562,86.005447 259.523163,86.091240 243.173721,86.061600 
	C242.319885,86.103546 241.466049,86.145485 239.738968,86.051849 
	C177.475281,86.033005 115.209114,86.311768 52.949532,85.796349 
	C36.366405,85.659073 21.765457,102.295334 21.855698,116.832039 
	C22.201906,172.601273 21.986799,228.373932 22.001204,284.145325 
	C22.004902,298.460358 22.082125,312.775421 22.015129,328.010468 
	C22.008881,359.337616 22.105165,390.665466 21.889675,421.991180 
	C21.856007,426.885559 23.350538,428.269867 28.116726,428.100891 
	C39.269009,427.705444 50.439384,427.742676 61.602455,427.741089 
	C192.576752,427.722534 323.551056,427.728027 454.525360,427.733643 
	C459.687622,427.733856 464.849884,427.799042 470.942749,427.934723 
z"/>
	<path fill="#37464E" opacity="1.000000" stroke="none" d="
M491.622070,326.984528 
	C491.725525,353.016113 491.828979,379.047668 491.600586,405.709900 
	C490.773254,406.978943 490.118530,407.548157 489.806702,408.266266 
	C486.313293,416.311584 480.595703,422.106720 472.573700,425.683563 
	C471.594879,426.120056 470.860046,427.103821 470.012146,427.833984 
	C464.849884,427.799042 459.687622,427.733856 454.525360,427.733643 
	C323.551056,427.728027 192.576752,427.722534 61.602455,427.741089 
	C50.439384,427.742676 39.269009,427.705444 28.116726,428.100891 
	C23.350538,428.269867 21.856007,426.885559 21.889675,421.991180 
	C22.105165,390.665466 22.008881,359.337616 22.527208,327.579712 
	C40.471931,327.148956 57.904579,327.148956 75.710632,327.148956 
	C76.316818,311.745483 76.905907,296.927979 77.467064,282.109436 
	C77.497978,281.293182 77.396912,280.440308 77.177902,279.654449 
	C76.918716,278.724457 77.350258,272.118805 77.471069,271.347839 
	C77.953323,268.270203 78.257050,265.164612 78.724510,261.251892 
	C83.850769,261.251892 89.797211,261.546204 95.704407,261.189941 
	C107.580017,260.473633 119.991127,264.111633 131.024460,256.986450 
	C131.024460,253.438873 131.024460,249.817200 131.024460,246.195526 
	C131.731506,246.008896 132.438553,245.822266 133.145599,245.635635 
	C134.021744,247.908035 135.056412,250.135345 135.719940,252.468216 
	C136.185059,254.103561 136.143768,255.882950 136.406021,258.315918 
	C139.064194,249.808319 141.312851,242.611435 143.995651,234.025055 
	C147.322754,241.798065 149.970566,247.984039 152.605118,254.139053 
	C155.178116,249.759369 157.371536,246.025787 159.493408,242.413986 
	C164.214691,244.983582 154.366180,250.066711 162.006027,251.555496 
	C160.804825,253.418076 159.722549,255.096237 157.895676,257.928955 
	C162.992233,258.614410 166.898315,259.417694 170.835114,259.618347 
	C183.860001,260.282227 196.895981,260.728699 209.927719,261.258301 
	C210.094116,261.265045 210.293198,261.208984 210.421906,261.280884 
	C211.208115,261.720123 211.978378,262.187927 212.753937,262.646210 
	C212.280273,263.375702 211.811066,264.108154 211.331909,264.834045 
	C210.638245,265.884857 209.143265,267.232788 209.403305,267.916656 
	C209.961044,269.383514 211.270309,270.708923 212.573639,271.692230 
	C213.319519,272.255005 214.657898,272.032440 215.055954,272.081085 
	C213.672577,275.309113 211.735275,278.300812 211.175400,281.531250 
	C210.507584,285.384521 210.785202,289.460724 211.093719,293.405884 
	C211.351425,296.701050 212.540710,299.923584 212.796036,303.218689 
	C213.401199,311.029236 213.696655,318.863800 214.119598,326.731079 
	C220.577332,326.731079 226.110916,326.731079 231.024765,326.731079 
	C231.918518,312.826691 232.963120,299.391846 233.599396,285.937683 
	C234.333099,270.423157 234.834473,254.894501 235.191116,239.366333 
	C235.428162,229.045044 235.234741,218.713852 235.234070,208.387100 
	C235.233902,205.947388 235.234039,203.507675 235.234039,201.181229 
	C229.617798,200.274139 229.617783,200.274139 224.636124,190.643921 
	C221.194611,183.991043 223.284210,175.502441 228.765228,170.947021 
	C232.628754,167.735947 236.628708,164.507614 235.425674,158.003937 
	C234.481430,152.899384 235.236221,147.480530 235.236221,142.239059 
	C237.246048,141.855515 238.664368,141.584854 240.612213,141.213135 
	C240.612213,122.759293 240.612213,104.473358 240.612213,86.187424 
	C241.466049,86.145485 242.319885,86.103546 243.585526,86.558250 
	C243.997330,105.147614 243.997330,123.240334 243.997330,141.382385 
	C246.030029,141.678635 247.432327,141.882996 249.121979,142.129242 
	C249.121979,149.096588 248.998917,155.743439 249.213196,162.379410 
	C249.263367,163.932922 250.053116,166.320709 251.186905,166.845078 
	C260.095917,170.965439 261.791534,178.236176 261.368988,187.124481 
	C261.067566,193.464981 257.816864,197.724380 252.920914,200.432983 
	C249.847672,202.133209 248.915878,203.884659 249.125671,206.948456 
	C250.114944,221.396942 248.842819,235.806870 250.510452,250.393570 
	C252.866943,271.005615 252.172714,291.968536 252.727921,312.782898 
	C252.850983,317.396881 252.745956,322.016968 252.745956,326.770782 
	C258.172119,326.770782 263.037720,326.770782 268.886139,326.770782 
	C268.155334,315.867584 267.436768,305.398560 266.787445,294.925232 
	C266.741394,294.182739 267.054840,293.317444 267.453766,292.663391 
	C271.514557,286.005920 271.059418,279.962830 266.110565,273.850830 
	C265.398285,272.971130 265.153717,271.712799 264.352295,269.829926 
	C270.828125,269.165314 276.417389,268.591675 282.190735,268.134888 
	C282.914398,268.173157 283.453979,268.094574 284.452942,268.085754 
	C291.408264,268.774567 297.904144,269.393616 304.399994,270.012695 
	C304.594666,270.362213 304.789307,270.711761 304.983948,271.061310 
	C296.713684,275.710876 296.990509,282.894287 298.333801,290.547424 
	C306.233521,290.547424 313.954193,290.547424 320.999573,290.547424 
	C322.402649,281.145660 323.742310,272.169128 325.081940,263.192627 
	C325.886230,263.251709 326.690521,263.310822 327.494812,263.369904 
	C327.494812,265.849060 327.176605,268.385651 327.610016,270.786591 
	C327.885223,272.311127 329.277893,273.634003 330.169434,275.047302 
	C331.061035,274.124390 332.037048,273.266602 332.816193,272.256927 
	C333.389618,271.513885 333.731415,270.584106 334.132477,269.717224 
	C339.134247,258.906281 354.094055,251.823685 364.351959,256.407074 
	C372.047150,259.845398 379.714233,264.295685 379.281311,274.831848 
	C381.181732,274.831848 382.585541,274.831848 383.570923,274.831848 
	C384.598206,270.703217 385.537628,266.927643 386.477051,263.152069 
	C387.236664,263.190033 387.996246,263.227997 388.755859,263.265961 
	C389.269379,272.395538 389.782898,281.525116 390.288391,290.512421 
	C398.913879,290.512421 407.146027,290.512421 415.290192,290.512421 
	C416.852112,282.525940 416.334930,275.538910 407.691284,270.444366 
	C415.394928,269.286530 421.529785,268.364471 428.006470,267.391022 
	C428.006470,259.702026 428.006470,252.099472 428.006470,244.419128 
	C435.075500,244.419128 441.754791,244.419128 448.343933,244.419128 
	C448.343933,249.094498 448.343933,253.339935 448.343933,258.011536 
	C442.036743,258.011536 436.099762,258.011536 429.897644,258.011536 
	C429.897644,261.506927 429.897644,264.566895 429.897644,267.428131 
	C436.163574,268.297699 442.144470,269.127716 448.193054,269.967102 
	C446.726776,274.553925 441.790436,276.634583 443.206879,281.746216 
	C444.255432,285.530060 440.408020,290.718567 445.839355,292.499878 
	C445.839355,304.246307 445.839355,315.482788 445.839355,326.984528 
	C461.044403,326.984528 476.333252,326.984528 491.622070,326.984528 
M132.990265,318.454712 
	C132.990265,321.224091 132.990265,323.993469 132.990265,326.788879 
	C140.781525,326.788879 147.972641,326.788879 155.259491,326.788879 
	C155.259491,314.689423 155.259491,302.971863 155.259491,291.245575 
	C147.704636,291.245575 140.492371,291.245575 132.990265,291.245575 
	C132.990265,300.225769 132.990265,308.844727 132.990265,318.454712 
M87.941078,310.498474 
	C87.941078,315.916809 87.941078,321.335114 87.941078,326.727905 
	C92.894257,326.727905 97.237366,326.727905 101.450684,326.727905 
	C101.450684,313.947937 101.450684,301.610870 101.450684,289.359802 
	C96.789177,289.359802 92.549545,289.359802 87.941078,289.359802 
	C87.941078,296.284546 87.941078,302.891754 87.941078,310.498474 
M123.328545,326.982086 
	C123.639664,323.768982 124.173065,320.559052 124.219116,317.342163 
	C124.343925,308.623993 124.261909,299.902863 124.261909,291.227905 
	C119.266258,291.227905 115.049774,291.227905 110.692429,291.227905 
	C110.692429,303.292908 110.692429,315.002136 110.692429,327.135437 
	C114.789864,327.135437 118.578613,327.135437 123.328545,326.982086 
M164.131195,312.493713 
	C164.131195,317.258087 164.131195,322.022491 164.131195,326.892029 
	C169.073318,326.892029 173.321823,326.892029 177.653076,326.892029 
	C177.653076,314.767029 177.653076,302.919434 177.653076,291.252502 
	C172.997650,291.252502 168.752289,291.252502 164.131195,291.252502 
	C164.131195,298.242615 164.131195,304.869080 164.131195,312.493713 
M198.235016,327.180542 
	C199.052383,326.577423 200.574921,325.983124 200.582611,325.369873 
	C200.725113,313.990540 200.687103,302.608917 200.687103,291.194580 
	C196.332870,291.194580 192.611542,291.194580 188.702362,291.194580 
	C188.702362,303.239746 188.702362,314.942932 188.702362,327.194580 
	C191.752396,327.194580 194.527786,327.194580 198.235016,327.180542 
z"/>
	<path fill="#FCE83B" opacity="1.000000" stroke="none" d="
M491.674866,326.511047 
	C476.333252,326.984528 461.044403,326.984528 445.839355,326.984528 
	C445.839355,315.482788 445.839355,304.246307 445.839355,292.499878 
	C440.408020,290.718567 444.255432,285.530060 443.206879,281.746216 
	C441.790436,276.634583 446.726776,274.553925 448.193054,269.967102 
	C442.144470,269.127716 436.163574,268.297699 429.897644,267.428131 
	C429.897644,264.566895 429.897644,261.506927 429.897644,258.011536 
	C436.099762,258.011536 442.036743,258.011536 448.343933,258.011536 
	C448.343933,253.339935 448.343933,249.094498 448.343933,244.419128 
	C441.754791,244.419128 435.075500,244.419128 428.006470,244.419128 
	C428.006470,252.099472 428.006470,259.702026 428.006470,267.391022 
	C421.529785,268.364471 415.394928,269.286530 407.691284,270.444366 
	C416.334930,275.538910 416.852112,282.525940 415.290192,290.512421 
	C407.146027,290.512421 398.913879,290.512421 390.288391,290.512421 
	C389.782898,281.525116 389.269379,272.395538 388.755859,263.265961 
	C387.996246,263.227997 387.236664,263.190033 386.477051,263.152069 
	C385.537628,266.927643 384.598206,270.703217 383.570923,274.831848 
	C382.585541,274.831848 381.181732,274.831848 379.281311,274.831848 
	C379.714233,264.295685 372.047150,259.845398 364.351959,256.407074 
	C354.094055,251.823685 339.134247,258.906281 334.132477,269.717224 
	C333.731415,270.584106 333.389618,271.513885 332.816193,272.256927 
	C332.037048,273.266602 331.061035,274.124390 330.169434,275.047302 
	C329.277893,273.634003 327.885223,272.311127 327.610016,270.786591 
	C327.176605,268.385651 327.494812,265.849060 327.494812,263.369904 
	C326.690521,263.310822 325.886230,263.251709 325.081940,263.192627 
	C323.742310,272.169128 322.402649,281.145660 320.999573,290.547424 
	C313.954193,290.547424 306.233521,290.547424 298.333801,290.547424 
	C296.990509,282.894287 296.713684,275.710876 304.983948,271.061310 
	C304.789307,270.711761 304.594666,270.362213 304.399994,270.012695 
	C297.904144,269.393616 291.408264,268.774567 284.483032,267.723816 
	C284.437103,263.670715 284.820496,260.049316 285.265900,255.842239 
	C290.591919,255.842239 296.670624,255.842239 302.607971,255.842239 
	C302.607971,251.620087 302.607971,247.897797 302.607971,244.306000 
	C295.619965,244.306000 289.033478,244.306000 282.006622,244.306000 
	C282.006622,252.425446 282.006622,260.221741 282.006622,268.018036 
	C276.417389,268.591675 270.828125,269.165314 264.352295,269.829926 
	C265.153717,271.712799 265.398285,272.971130 266.110565,273.850830 
	C271.059418,279.962830 271.514557,286.005920 267.453766,292.663391 
	C267.054840,293.317444 266.741394,294.182739 266.787445,294.925232 
	C267.436768,305.398560 268.155334,315.867584 268.886139,326.770782 
	C263.037720,326.770782 258.172119,326.770782 252.745956,326.770782 
	C252.745956,322.016968 252.850983,317.396881 252.727921,312.782898 
	C252.172714,291.968536 252.866943,271.005615 250.510452,250.393570 
	C248.842819,235.806870 250.114944,221.396942 249.125671,206.948456 
	C248.915878,203.884659 249.847672,202.133209 252.920914,200.432983 
	C257.816864,197.724380 261.067566,193.464981 261.368988,187.124481 
	C261.791534,178.236176 260.095917,170.965439 251.186905,166.845078 
	C250.053116,166.320709 249.263367,163.932922 249.213196,162.379410 
	C248.998917,155.743439 249.121979,149.096588 249.121979,142.129242 
	C247.432327,141.882996 246.030029,141.678635 243.997330,141.382385 
	C243.997330,123.240334 243.997330,105.147614 244.012054,86.597321 
	C259.523163,86.091240 275.019562,86.005447 290.515961,86.000900 
	C347.680603,85.984123 404.846161,86.175285 462.009247,85.876099 
	C477.717926,85.793884 491.916809,101.592102 491.845276,116.045609 
	C491.677032,150.043579 491.758087,184.042786 491.747009,218.041504 
	C491.735291,254.040176 491.733704,290.038849 491.674866,326.511047 
z"/>
	<path fill="#FDE93B" opacity="1.000000" stroke="none" d="
M240.175598,86.119637 
	C240.612213,104.473358 240.612213,122.759293 240.612213,141.213135 
	C238.664368,141.584854 237.246048,141.855515 235.236221,142.239059 
	C235.236221,147.480530 234.481430,152.899384 235.425674,158.003937 
	C236.628708,164.507614 232.628754,167.735947 228.765228,170.947021 
	C223.284210,175.502441 221.194611,183.991043 224.636124,190.643921 
	C229.617783,200.274139 229.617798,200.274139 235.234039,201.181229 
	C235.234039,203.507675 235.233902,205.947388 235.234070,208.387100 
	C235.234741,218.713852 235.428162,229.045044 235.191116,239.366333 
	C234.834473,254.894501 234.333099,270.423157 233.599396,285.937683 
	C232.963120,299.391846 231.918518,312.826691 231.024765,326.731079 
	C226.110916,326.731079 220.577332,326.731079 214.119598,326.731079 
	C213.696655,318.863800 213.401199,311.029236 212.796036,303.218689 
	C212.540710,299.923584 211.351425,296.701050 211.093719,293.405884 
	C210.785202,289.460724 210.507584,285.384521 211.175400,281.531250 
	C211.735275,278.300812 213.672577,275.309113 215.055954,272.081085 
	C214.657898,272.032440 213.319519,272.255005 212.573639,271.692230 
	C211.270309,270.708923 209.961044,269.383514 209.403305,267.916656 
	C209.143265,267.232788 210.638245,265.884857 211.331909,264.834045 
	C211.811066,264.108154 212.280273,263.375702 212.753937,262.646210 
	C211.978378,262.187927 211.208115,261.720123 210.421906,261.280884 
	C210.293198,261.208984 210.094116,261.265045 209.927719,261.258301 
	C196.895981,260.728699 183.860001,260.282227 170.835114,259.618347 
	C166.898315,259.417694 162.992233,258.614410 157.895676,257.928955 
	C159.722549,255.096237 160.804825,253.418076 162.006027,251.555496 
	C154.366180,250.066711 164.214691,244.983582 159.493408,242.413986 
	C157.371536,246.025787 155.178116,249.759369 152.605118,254.139053 
	C149.970566,247.984039 147.322754,241.798065 143.995651,234.025055 
	C141.312851,242.611435 139.064194,249.808319 136.406021,258.315918 
	C136.143768,255.882950 136.185059,254.103561 135.719940,252.468216 
	C135.056412,250.135345 134.021744,247.908035 133.145599,245.635635 
	C132.438553,245.822266 131.731506,246.008896 131.024460,246.195526 
	C131.024460,249.817200 131.024460,253.438873 131.024460,256.986450 
	C119.991127,264.111633 107.580017,260.473633 95.704407,261.189941 
	C89.797211,261.546204 83.850769,261.251892 78.724510,261.251892 
	C78.257050,265.164612 77.953323,268.270203 77.471069,271.347839 
	C77.350258,272.118805 76.918716,278.724457 77.177902,279.654449 
	C77.396912,280.440308 77.497978,281.293182 77.467064,282.109436 
	C76.905907,296.927979 76.316818,311.745483 75.710632,327.148956 
	C57.904579,327.148956 40.471931,327.148956 22.582430,327.119690 
	C22.082125,312.775421 22.004902,298.460358 22.001204,284.145325 
	C21.986799,228.373932 22.201906,172.601273 21.855698,116.832039 
	C21.765457,102.295334 36.366405,85.659073 52.949532,85.796349 
	C115.209114,86.311768 177.475281,86.033005 240.175598,86.119637 
z"/>
	<path fill="#37474F" opacity="1.000000" stroke="none" d="
M470.477478,427.884338 
	C470.860046,427.103821 471.594879,426.120056 472.573700,425.683563 
	C480.595703,422.106720 486.313293,416.311584 489.806702,408.266266 
	C490.118530,407.548157 490.773254,406.978943 491.551270,406.177124 
	C491.885010,412.000519 491.843628,417.990234 492.026123,423.973053 
	C492.118958,427.016479 490.881989,428.105164 487.909576,428.026489 
	C482.257111,427.876862 476.598694,427.952576 470.477478,427.884338 
z"/>
	<path fill="#F9E63B" opacity="1.000000" stroke="none" d="
M132.990265,317.959198 
	C132.990265,308.844727 132.990265,300.225769 132.990265,291.245575 
	C140.492371,291.245575 147.704636,291.245575 155.259491,291.245575 
	C155.259491,302.971863 155.259491,314.689423 155.259491,326.788879 
	C147.972641,326.788879 140.781525,326.788879 132.990265,326.788879 
	C132.990265,323.993469 132.990265,321.224091 132.990265,317.959198 
z"/>
	<path fill="#F9E63B" opacity="1.000000" stroke="none" d="
M87.941078,309.998718 
	C87.941078,302.891754 87.941078,296.284546 87.941078,289.359802 
	C92.549545,289.359802 96.789177,289.359802 101.450684,289.359802 
	C101.450684,301.610870 101.450684,313.947937 101.450684,326.727905 
	C97.237366,326.727905 92.894257,326.727905 87.941078,326.727905 
	C87.941078,321.335114 87.941078,315.916809 87.941078,309.998718 
z"/>
	<path fill="#F7E43C" opacity="1.000000" stroke="none" d="
M122.847954,327.058777 
	C118.578613,327.135437 114.789864,327.135437 110.692429,327.135437 
	C110.692429,315.002136 110.692429,303.292908 110.692429,291.227905 
	C115.049774,291.227905 119.266258,291.227905 124.261909,291.227905 
	C124.261909,299.902863 124.343925,308.623993 124.219116,317.342163 
	C124.173065,320.559052 123.639664,323.768982 122.847954,327.058777 
z"/>
	<path fill="#FAE63B" opacity="1.000000" stroke="none" d="
M164.131195,311.994629 
	C164.131195,304.869080 164.131195,298.242615 164.131195,291.252502 
	C168.752289,291.252502 172.997650,291.252502 177.653076,291.252502 
	C177.653076,302.919434 177.653076,314.767029 177.653076,326.892029 
	C173.321823,326.892029 169.073318,326.892029 164.131195,326.892029 
	C164.131195,322.022491 164.131195,317.258087 164.131195,311.994629 
z"/>
	<path fill="#F0DE3C" opacity="1.000000" stroke="none" d="
M197.769104,327.187561 
	C194.527786,327.194580 191.752396,327.194580 188.702362,327.194580 
	C188.702362,314.942932 188.702362,303.239746 188.702362,291.194580 
	C192.611542,291.194580 196.332870,291.194580 200.687103,291.194580 
	C200.687103,302.608917 200.725113,313.990540 200.582611,325.369873 
	C200.574921,325.983124 199.052383,326.577423 197.769104,327.187561 
z"/>
	<path fill="#414E4F" opacity="1.000000" stroke="none" d="
M282.190735,268.134888 
	C282.006622,260.221741 282.006622,252.425446 282.006622,244.306000 
	C289.033478,244.306000 295.619965,244.306000 302.607971,244.306000 
	C302.607971,247.897797 302.607971,251.620087 302.607971,255.842239 
	C296.670624,255.842239 290.591919,255.842239 285.265900,255.842239 
	C284.820496,260.049316 284.437103,263.670715 284.023621,267.654053 
	C283.453979,268.094574 282.914398,268.173157 282.190735,268.134888 
z"/>
</svg>