<?xml version="1.0" encoding="utf-8"?>
<svg viewBox="60.079925537109375 47.431976318359375 367.0620422363281 109.57205200195312" width="367.0620422363281" height="109.57205200195312" xmlns="http://www.w3.org/2000/svg"><g transform="matrix(1, 0, 0, 1, 0, 0)">
			<g>
				<path fill="#010101" d="M427.142,157c-0.992-15.241-2.063-30.479-3.062-45.72c-1.072,0.004-2.145-0.002-3.217,0.006&#10;&#9;&#9;&#9;&#9;&#9;c-0.602-9.171-1.172-18.346-1.782-27.515c-0.013-0.546-0.745-0.755-0.718-1.317c-0.082-1.284-0.13-2.57-0.187-3.854&#10;&#9;&#9;&#9;&#9;&#9;c-0.672-0.06-1.344-0.088-2.011-0.088c-0.031-0.366-0.053-0.729-0.069-1.093c-1.165,0.031-2.325-0.081-3.488-0.055&#10;&#9;&#9;&#9;&#9;&#9;c-0.064-0.597-0.121-1.191-0.196-1.786c-0.297,0.04-0.592,0.077-0.883,0.117c-0.396-3.868-0.771-7.737-1.188-11.603&#10;&#9;&#9;&#9;&#9;&#9;c0.029,3.735,0.203,7.468,0.289,11.204c0.128,0.661-0.392,1.189-0.74,1.687c-1.094,0.341-2.294,0.3-3.403,0.608&#10;&#9;&#9;&#9;&#9;&#9;c-0.621,0.379-1.24,0.787-1.775,1.277c-0.119,1.628-0.172,3.264-0.222,4.896c-0.3,0.17-0.599,0.344-0.893,0.518&#10;&#9;&#9;&#9;&#9;&#9;c0.137,2.454,0.307,4.903,0.467,7.354c-2.496-0.08-4.986-0.421-7.484-0.291c-1.463-0.068-2.898-0.46-4.368-0.385&#10;&#9;&#9;&#9;&#9;&#9;c-0.899,0.029-1.815,0.092-2.713,0.241V135h-4.167V94.37c-1.77-1.416-3.517-2.86-5.296-4.264&#10;&#9;&#9;&#9;&#9;&#9;c-0.027,0.222-0.077,0.669-0.104,0.892c-0.517-0.207-1.031-0.414-1.544-0.619c0-0.185,0.002-0.559,0.004-0.744&#10;&#9;&#9;&#9;&#9;&#9;c-2.562-0.698-5.134-1.366-7.695-2.063c0.022,0.42,0.037,0.841,0.057,1.262c-1.102-0.421-2.203-0.833-3.295-1.269&#10;&#9;&#9;&#9;&#9;&#9;c0.04,0.819,0.031,1.643,0.031,2.464c-3.2,0.009-6.4-0.02-9.601,0.011c-0.881,0.249-1.669,0.76-2.515,1.11&#10;&#9;&#9;&#9;&#9;&#9;c0.092,6.837,0.063,13.673,0.201,20.508c-0.06-0.296-0.115-0.59-0.17-0.884c-1.423,0.027-2.848,0.007-4.271,0.014&#10;&#9;&#9;&#9;&#9;&#9;c-0.005,0.643-0.002,1.286,0.048,1.927c-0.562,0-1.121,0-1.681-0.009c0.064,1.506,0.059,3.015,0.157,4.522&#10;&#9;&#9;&#9;&#9;&#9;c-1.251,0.004-2.502,0-3.751,0.002c0.006-1.745-0.095-3.487-0.126-5.231c-1.134-0.006-2.266,0.021-3.396-0.021&#10;&#9;&#9;&#9;&#9;&#9;c-0.009-6.139-0.004-12.274-0.002-18.413c-3.601-0.147-7.199-0.341-10.801-0.462c0.295-7.577,0.52-15.158,0.787-22.736&#10;&#9;&#9;&#9;&#9;&#9;c0.931-0.43,1.872-0.842,2.801-1.282c0.344-1.881,0.689-3.764,1.03-5.645c-0.612-0.412-1.218-0.833-1.821-1.255&#10;&#9;&#9;&#9;&#9;&#9;c0.201-1.614,0.445-3.222,0.645-4.839c-0.91-0.282-1.81-0.593-2.713-0.89c-0.108-3.007-0.169-6.02-0.346-9.024&#10;&#9;&#9;&#9;&#9;&#9;c-0.225,3.053-0.381,6.107-0.601,9.161c-0.886,0.07-1.767,0.156-2.65,0.25c0.035,1.698,0.145,3.392,0.211,5.088&#10;&#9;&#9;&#9;&#9;&#9;c-0.727,0.154-1.447,0.331-2.167,0.498c0.194,1.987,0.407,3.971,0.599,5.958c0.917,0.687,1.687,1.61,2.749,2.077&#10;&#9;&#9;&#9;&#9;&#9;c-0.282,7.504-0.663,15.005-0.945,22.509c-1.346-0.044-2.691-0.121-4.037-0.163c-0.386,0.467-0.773,0.931-1.141,1.411&#10;&#9;&#9;&#9;&#9;&#9;c-0.015,1.392,0.097,2.784,0.062,4.179c-1.942,0.015-3.885-0.031-5.823,0.02c-0.645,0.445-0.513,1.267-0.513,1.942&#10;&#9;&#9;&#9;&#9;&#9;c-0.264,0.031-0.524,0.064-0.784,0.099c0.013,0.54,0.046,1.081,0.083,1.624c-0.663,0-1.324,0-1.982,0.053&#10;&#9;&#9;&#9;&#9;&#9;c0.017-0.159,0.053-0.472,0.07-0.63c-0.359-0.024-0.718-0.048-1.07-0.077c-0.059,2.496-0.211,4.988-0.328,7.482&#10;&#9;&#9;&#9;&#9;&#9;c-4.9,0.009-9.801,0.004-14.701,0.004V157H427.142z" style="fill: rgb(204, 204, 204); opacity: 1;"/>
			</g>
			<g>
				<path fill="#010101" d="M203.84,157v-46.543c-0.407-1.124-0.812-2.248-1.209-3.375c-1.029-0.372-2.046-0.777-3.082-1.127&#10;&#9;&#9;&#9;&#9;&#9;c-0.663-0.143-1.35-0.044-2.02-0.068c0-0.209,0-0.421,0.004-0.628c-0.839-0.258-1.637-0.766-2.542-0.698&#10;&#9;&#9;&#9;&#9;&#9;c-1.927,0.006-3.853,0.002-5.777,0.004c-0.018,2.892,0.033,5.784-0.026,8.676c-1.421,0.004-2.804,0.365-4.202,0.557&#10;&#9;&#9;&#9;&#9;&#9;c-0.007,0.255-0.009,0.509-0.009,0.767c-0.608,0.088-1.214,0.167-1.819,0.253c0.021,2.088-0.062,4.18,0.068,6.268&#10;&#9;&#9;&#9;&#9;&#9;c-0.958-0.08-1.918-0.06-2.874-0.057c-0.002-0.462-0.002-0.925-0.004-1.388c-2.363,0.203-4.724,0.412-7.09,0.597&#10;&#9;&#9;&#9;&#9;&#9;c-0.029,2.117-0.004,4.233-0.011,6.352c-0.476-0.002-0.95-0.002-1.421,0c-0.282-10.367-0.555-20.734-0.8-31.104&#10;&#9;&#9;&#9;&#9;&#9;c-0.295-0.007-0.585-0.013-0.878-0.02c-0.181-3.718-0.35-7.438-0.544-11.154c-0.52-0.018-1.035-0.055-1.553-0.081&#10;&#9;&#9;&#9;&#9;&#9;c-0.132-0.538-0.267-1.073-0.399-1.61c-0.632-0.105-1.262-0.224-1.894-0.328c0-0.322-0.002-0.645,0-0.965&#10;&#9;&#9;&#9;&#9;&#9;c-1.205,0.029-2.41-0.044-3.612-0.061c-0.061-0.712-0.146-1.419-0.209-2.128c-1.357-0.088-2.709-0.218-4.063-0.326&#10;&#9;&#9;&#9;&#9;&#9;c0.033-0.733,0.075-1.467,0.075-2.202c-0.731-0.104-1.456-0.273-2.193-0.315c-0.46,0.115-0.892,0.315-1.328,0.491&#10;&#9;&#9;&#9;&#9;&#9;c0.156,6.46,0.215,12.922,0.385,19.384c-0.185-0.022-0.555-0.064-0.74-0.086c0.139,4.405,0.183,8.814,0.249,13.221&#10;&#9;&#9;&#9;&#9;&#9;c-0.341-0.006-0.681-0.008-1.02-0.013c0.035,1.267-0.036,2.537,0.079,3.801c-0.683-0.046-1.458-0.257-2.075,0.141&#10;&#9;&#9;&#9;&#9;&#9;c-0.634,0.454-0.125,1.574-0.901,1.896c-1.075,0.189-2.167,0.269-3.251,0.39c0.06,0.079,0.181,0.235,0.24,0.315&#10;&#9;&#9;&#9;&#9;&#9;c0.007,2.222-0.115,4.454-0.143,6.678c-0.328,0-0.658-0.002-0.984,0c0.035-3.781-0.075-7.565,0.066-11.343&#10;&#9;&#9;&#9;&#9;&#9;c-2.218,0.024-4.438-0.125-6.656-0.033c-1.119,0.147-2.229,0.357-3.339,0.555c-0.068,2.07-0.169,4.143-0.216,6.216&#10;&#9;&#9;&#9;&#9;&#9;c-0.301-0.033-0.605-0.064-0.905-0.09c-0.275-0.436-0.804-0.504-1.251-0.657c-0.07-0.262-0.139-0.526-0.205-0.786&#10;&#9;&#9;&#9;&#9;&#9;c-0.839-0.145-1.693-0.085-2.533,0.016c0.002-0.313,0.007-0.622,0.009-0.932c-2.053,0.055-4.107,0.088-6.16,0.183&#10;&#9;&#9;&#9;&#9;&#9;c-0.009,0.621-0.05,1.24-0.077,1.861c-0.326,0-0.652-0.002-0.976,0c-0.002,0.431-0.007,0.865-0.018,1.299&#10;&#9;&#9;&#9;&#9;&#9;c-0.563,0.086-1.136,0.081-1.702,0.031c0.031-0.498,0.062-0.996,0.082-1.493c-0.247-0.002-0.491-0.004-0.736-0.004&#10;&#9;&#9;&#9;&#9;&#9;c0.018-1.996,0.128-3.989,0.119-5.984c-0.817-0.038-1.632-0.086-2.447-0.072c0.225-3.775,0.363-7.557,0.548-11.334&#10;&#9;&#9;&#9;&#9;&#9;c-0.258,0.09-0.518,0.176-0.775,0.263c-0.053-0.408-0.099-0.815-0.147-1.221c-0.287,0.02-0.573,0.042-0.859,0.068&#10;&#9;&#9;&#9;&#9;&#9;c-0.046-0.564-0.079-1.127-0.125-1.689c-0.624-0.055-1.247-0.112-1.868-0.167c-0.002-0.4-0.002-0.802,0.002-1.2&#10;&#9;&#9;&#9;&#9;&#9;c-0.566-0.128-1.132-0.255-1.705-0.334c-0.086-2.049-0.317-4.09-0.262-6.143c-0.379,1.971-0.319,3.991-0.474,5.984&#10;&#9;&#9;&#9;&#9;&#9;c-1.193-0.022-2.277,0.423-3.286,1.02c0.295,0.489,0.586,0.986,0.753,1.537c-0.72-0.159-1.44-0.366-2.053-0.793&#10;&#9;&#9;&#9;&#9;&#9;c-0.54-0.375-1.222-0.304-1.837-0.445c-0.22-1.205-0.689-2.368-0.7-3.608c-0.233,1.275-0.674,2.509-0.778,3.811&#10;&#9;&#9;&#9;&#9;&#9;c-0.336-0.102-0.676-0.196-1.017-0.273c-0.63,1.09-1.353,2.128-1.95,3.236c-0.046,0.456,0.042,0.912,0.073,1.368&#10;&#9;&#9;&#9;&#9;&#9;c-0.797,0.092-1.592,0.209-2.387,0.304c-0.265,8.31-0.632,16.618-0.94,24.926c-0.725,0.002-1.449,0.002-2.172,0&#10;&#9;&#9;&#9;&#9;&#9;c0.156-5.244,0.328-10.491,0.454-15.735c-1.893-0.063-3.787-0.121-5.678-0.178c-1.879,0.102-3.735,0.454-5.614,0.566&#10;&#9;&#9;&#9;&#9;&#9;c0,0.189,0,0.568-0.002,0.757c-1.819-0.002-3.641,0.002-5.46-0.002c0.147-3.793,0.352-7.583,0.456-11.375&#10;&#9;&#9;&#9;&#9;&#9;c-0.214-0.12-0.425-0.236-0.634-0.351c-0.233-0.98-0.689-1.888-0.996-2.843c-0.137-0.462-0.469-0.938-0.993-0.976&#10;&#9;&#9;&#9;&#9;&#9;c-0.39,0.083-0.597,0.454-0.85,0.725c-0.777-0.333-1.526-0.811-2.398-0.83c-3.808-0.348-7.612-0.723-11.42-1.064&#10;&#9;&#9;&#9;&#9;&#9;c-1.378,20.574-2.792,41.143-4.148,61.719H203.84z" style="fill: rgb(204, 204, 204); opacity: 1;"/>
				<path fill="#010101" d="M135.187,49.488c0.132,0.029,0.398,0.087,0.532,0.116c-0.079,2.851-0.083,5.706-0.12,8.558&#10;&#9;&#9;&#9;&#9;&#9;c0.183,0.111,0.464,0.145,0.514,0.393c0.006,0.262-0.252,0.347-0.439,0.454c0.062,1.62,0.163,3.237,0.24,4.856&#10;&#9;&#9;&#9;&#9;&#9;c0.406,0.227,0.475,0.705,0.109,1.007c0.003,2.449,0.108,4.897,0.113,7.347c0.379,0.25,0.458,0.764,0.035,1.017&#10;&#9;&#9;&#9;&#9;&#9;c0.007,0.881,0.059,1.759,0.036,2.64c0.587,0.175,1.225,0.408,1.561,0.96c0.277,0.405,0.04,0.892,0.072,1.336&#10;&#9;&#9;&#9;&#9;&#9;c0.061,1.644,0.114,3.288,0.183,4.931c0.952,0.546,1.766,1.362,2.238,2.36c0.677,1.407,0.639,3.139-0.117,4.506&#10;&#9;&#9;&#9;&#9;&#9;c-0.692,1.307-1.979,2.25-3.402,2.619c0,0.105,0.001,0.316,0.001,0.423c0.199,0.126,0.393,0.266,0.571,0.423&#10;&#9;&#9;&#9;&#9;&#9;c-0.017,0.641,0.021,1.284-0.014,1.925c-0.012,0.244-0.291,0.33-0.441,0.476c0.6,19.725,1.314,39.449,1.938,59.174&#10;&#9;&#9;&#9;&#9;&#9;c-2.348,0-4.695,0-7.043,0c0.622-19.7,1.333-39.398,1.943-59.098c-0.251-0.157-0.671-0.277-0.645-0.648&#10;&#9;&#9;&#9;&#9;&#9;c0.004-0.612-0.032-1.225,0.023-1.833c0.183-0.242,0.465-0.364,0.732-0.482c0.003-0.097,0.006-0.292,0.007-0.389&#10;&#9;&#9;&#9;&#9;&#9;c-1.369-0.385-2.597-1.298-3.276-2.556c-0.686-1.234-0.803-2.762-0.318-4.087c0.431-1.22,1.36-2.224,2.483-2.847&#10;&#9;&#9;&#9;&#9;&#9;c0.044-1.669,0.124-3.338,0.174-5.007c0.021-0.38-0.192-0.789,0.024-1.143c0.311-0.594,0.973-0.872,1.587-1.033&#10;&#9;&#9;&#9;&#9;&#9;c0.043-0.875,0.085-1.751,0.079-2.627c-0.435-0.237-0.4-0.804,0.032-1.015c0.122-2.434,0.178-4.875,0.251-7.312&#10;&#9;&#9;&#9;&#9;&#9;c-0.491-0.188-0.511-0.812-0.061-1.059c0.083-1.617,0.14-3.236,0.201-4.855c-0.163-0.145-0.466-0.25-0.382-0.523&#10;&#9;&#9;&#9;&#9;&#9;c0.123-0.126,0.263-0.234,0.42-0.321C135.063,55.277,135.118,52.382,135.187,49.488z" style="fill: rgb(204, 204, 204); opacity: 1;"/>
			</g>
			<g>
				<g>
					<path fill="#FFFFFF" d="M250.932,101.449c-0.374,0.081-0.285-0.351-0.271-0.583C250.76,101.055,250.85,101.25,250.932,101.449z&#10;&#9;&#9;&#9;&#9;&#9;&#9;" style="fill: rgb(204, 204, 204); opacity: 1;"/>
				</g>
				<g>
					<g>
						<path fill="#010101" d="M208.282,120.338c0.227,0.111,0.402,0.321,0.664,0.354c-0.007,0.258-0.016,0.516-0.037,0.774&#10;&#9;&#9;&#9;&#9;&#9;&#9;&#9;c0.19,0.057,0.382,0.108,0.574,0.159c0.045,0.131,0.083,0.265,0.144,0.391c0.337,0.243,0.765,0.274,1.162,0.332&#10;&#9;&#9;&#9;&#9;&#9;&#9;&#9;c-0.037,0.772-0.239,1.524-0.283,2.297c-0.05,0.964-0.409,1.94-0.141,2.9c0.197,0.073,0.441,0.116,0.547,0.323&#10;&#9;&#9;&#9;&#9;&#9;&#9;&#9;c0.144,0.184,0.085,0.419,0.086,0.632c-0.299,9.501-0.628,19-0.907,28.5h10.372c0.203-9.36,0.451-18.718,0.665-28.077h3.705&#10;&#9;&#9;&#9;&#9;&#9;&#9;&#9;c-0.028,2.772-0.117,5.543-0.16,8.315c-0.152,6.587-0.267,13.175-0.429,19.761h9.258c0.105-9.359,0.267-18.717,0.37-28.077&#10;&#9;&#9;&#9;&#9;&#9;&#9;&#9;h4.827c-0.075,9.36-0.189,18.717-0.264,28.077h8.104c-0.002-2.141-0.007-4.282,0.027-6.422&#10;&#9;&#9;&#9;&#9;&#9;&#9;&#9;c0.012-2.349-0.029-4.698,0.027-7.044c-0.019-4.871,0.046-9.74,0.025-14.61h10.24c0.02,4.231,0.058,8.461,0.052,12.693&#10;&#9;&#9;&#9;&#9;&#9;&#9;&#9;c0.073,2.205-0.017,4.412,0.055,6.617c-0.022,2.924,0.036,5.845,0.026,8.767h7.416c-0.05-0.927-0.003-1.856-0.044-2.783&#10;&#9;&#9;&#9;&#9;&#9;&#9;&#9;c-0.073-7.473-0.163-14.945-0.234-22.418c-0.052-0.958,0.026-1.918-0.049-2.874c2.121-0.004,4.243-0.001,6.364-0.002&#10;&#9;&#9;&#9;&#9;&#9;&#9;&#9;c0.144,9.358,0.304,18.717,0.438,28.077h7.255c-0.207-9.358-0.388-18.718-0.614-28.077c2.632-0.001,5.263,0,7.895,0&#10;&#9;&#9;&#9;&#9;&#9;&#9;&#9;c0.248,9.358,0.532,18.717,0.771,28.077h5.572c-0.333-9.787-0.63-19.573-0.957-29.36c0.005-0.234-0.048-0.544,0.195-0.681&#10;&#9;&#9;&#9;&#9;&#9;&#9;&#9;c0.165-0.127,0.483-0.123,0.476-0.394c0.137-0.915-0.157-1.816-0.208-2.727c-0.037-0.76-0.27-1.498-0.254-2.261&#10;&#9;&#9;&#9;&#9;&#9;&#9;&#9;c0.406-0.031,0.812-0.117,1.168-0.322c0.031-0.131,0.064-0.26,0.098-0.39c0.196-0.048,0.392-0.1,0.588-0.154&#10;&#9;&#9;&#9;&#9;&#9;&#9;&#9;c-0.016-0.26-0.026-0.52-0.039-0.779c0.266-0.025,0.436-0.257,0.672-0.358c0.269-0.144,0.659-0.354,0.582-0.72&#10;&#9;&#9;&#9;&#9;&#9;&#9;&#9;c-0.179-0.333-0.556-0.475-0.866-0.653c-0.21-0.143-0.471-0.103-0.708-0.107c-0.674,0.004-1.348,0.001-2.021,0.002&#10;&#9;&#9;&#9;&#9;&#9;&#9;&#9;c0-0.086,0-0.261-0.002-0.348c-0.257,0-0.513,0-0.768,0.001c-0.03-1.147-0.081-2.297-0.104-3.444&#10;&#9;&#9;&#9;&#9;&#9;&#9;&#9;c0.071-0.41,0.564-0.454,0.856-0.651c0.215-0.105,0.223-0.362,0.25-0.568c0.297-0.14,0.411-0.528,0.17-0.774&#10;&#9;&#9;&#9;&#9;&#9;&#9;&#9;c-0.275-0.053-0.556-0.027-0.831-0.027c-8.67-0.005-17.341-0.001-26.011-0.001c-0.077-0.614-0.147-1.252-0.417-1.814&#10;&#9;&#9;&#9;&#9;&#9;&#9;&#9;c-0.542,0.001-1.082,0-1.623,0c-0.001-0.196-0.001-0.391,0-0.586c-0.188-0.001-0.375-0.001-0.56,0v-1.146&#10;&#9;&#9;&#9;&#9;&#9;&#9;&#9;c-1.088-0.003-2.176,0.004-3.264-0.005c0.108-0.747,0.089-1.537,0.406-2.235c-0.091,0.491-0.297,1-0.15,1.5&#10;&#9;&#9;&#9;&#9;&#9;&#9;&#9;c0.07,0.299,0.413,0.269,0.647,0.237c0.311-0.963,0.169-1.983,0.342-2.968c0.012-0.408,0.112-0.878-0.163-1.224&#10;&#9;&#9;&#9;&#9;&#9;&#9;&#9;c-0.318-0.42-0.157-0.958-0.011-1.41c0.206-0.56,0.094-1.18,0.311-1.737c0.093-0.241,0.158-0.491,0.201-0.746&#10;&#9;&#9;&#9;&#9;&#9;&#9;&#9;c-0.177,0.016-0.349,0.06-0.523,0.086c-0.081-0.136-0.178-0.262-0.291-0.373c-0.125,0.154-0.243,0.312-0.357,0.475&#10;&#9;&#9;&#9;&#9;&#9;&#9;&#9;c-0.213,0.317-0.625,0.459-0.763,0.833c-0.293,0.61-0.375,1.291-0.539,1.933c-0.375,0.163-0.811,0.078-1.204,0.034&#10;&#9;&#9;&#9;&#9;&#9;&#9;&#9;c-0.522-0.052-0.736-0.597-1.145-0.851c-0.438-0.905-0.054-1.945-0.136-2.906c-0.084-0.735-0.159-1.518-0.557-2.161&#10;&#9;&#9;&#9;&#9;&#9;&#9;&#9;c-0.185-0.315-0.576-0.421-0.909-0.293c-0.004,0.271,0.066,0.548-0.002,0.814c-0.168,0.214-0.522,0.21-0.704,0.016&#10;&#9;&#9;&#9;&#9;&#9;&#9;&#9;c-0.278-0.466,0.367-0.97,0.033-1.416c-0.252-0.337-0.671-0.061-0.964,0.062c-0.3,0.331-0.058,0.831-0.168,1.23&#10;&#9;&#9;&#9;&#9;&#9;&#9;&#9;c-0.248-0.287-0.188-0.682-0.194-1.03c0.013-0.589-0.206-1.205,0.048-1.77c0.194-0.346,0.597-0.472,0.902-0.692&#10;&#9;&#9;&#9;&#9;&#9;&#9;&#9;c0.104-0.484-0.079-1.014-0.437-1.356c-0.294-0.294-0.501-0.662-0.641-1.051c0.335,0.06,0.944,0.033,0.813-0.464&#10;&#9;&#9;&#9;&#9;&#9;&#9;&#9;c0.082-0.076,0.166-0.15,0.25-0.227c0.005-0.278-0.024-0.561,0.025-0.837c0.076-0.251,0.194-0.493,0.199-0.762&#10;&#9;&#9;&#9;&#9;&#9;&#9;&#9;c-0.421,0.234-0.806,0.531-1.16,0.855c-0.183,0.25-0.192,0.584-0.321,0.861c-0.132-0.346-0.069-0.783-0.348-1.062&#10;&#9;&#9;&#9;&#9;&#9;&#9;&#9;c-0.127-0.034-0.22,0.005-0.278,0.12c-0.071,0.347,0.142,0.66,0.231,0.98c-0.414-0.033-0.294-0.571-0.603-0.747&#10;&#9;&#9;&#9;&#9;&#9;&#9;&#9;c-0.437-0.308-0.804-0.753-1.351-0.864c-0.033,0.451,0.098,0.889,0.258,1.304c0.211,0.307,0.556,0.481,0.875,0.657&#10;&#9;&#9;&#9;&#9;&#9;&#9;&#9;c0.104,0.25,0.328,0.392,0.574,0.48c0.009,0.077,0.028,0.23,0.038,0.308c-0.625,0.295-0.661,1.115-0.515,1.704&#10;&#9;&#9;&#9;&#9;&#9;&#9;&#9;c0.08,0.488,0.62,0.636,0.853,1.024c0.285,0.451,0.26,1.014,0.228,1.524c-0.267,0.287-0.638,0.497-0.787,0.879&#10;&#9;&#9;&#9;&#9;&#9;&#9;&#9;c-0.087,0.237-0.112,0.598,0.187,0.691c0.145,0.633-0.064,1.285,0.08,1.919c0.057,0.331,0.187,0.686,0.039,1.011&#10;&#9;&#9;&#9;&#9;&#9;&#9;&#9;c-0.177,0.367-0.573,0.54-0.927,0.689c-0.591,0.212-1.152,0.512-1.77,0.64c0.228-0.636,0.14-1.663-0.653-1.824&#10;&#9;&#9;&#9;&#9;&#9;&#9;&#9;c-0.035,0.062-0.105,0.185-0.141,0.246c-0.265,0.005-0.523-0.057-0.775-0.125c-0.007,0.708,0.383,1.461,0.057,2.138&#10;&#9;&#9;&#9;&#9;&#9;&#9;&#9;c-0.394,0.429-1.052,0.309-1.575,0.34c-0.371,0.002-0.897,0.143-1.093-0.284c-0.167-0.538-0.337-1.083-0.665-1.552&#10;&#9;&#9;&#9;&#9;&#9;&#9;&#9;c-0.276-0.45-0.791-0.693-1.302-0.755c-0.244,0.003-0.379,0.231-0.545,0.373c-0.065-0.036-0.196-0.11-0.261-0.147&#10;&#9;&#9;&#9;&#9;&#9;&#9;&#9;c-0.006,0.189,0.028,0.372,0.187,0.498c-0.089,0.131-0.18,0.259-0.27,0.39c0.106,0.1,0.261,0.176,0.277,0.338&#10;&#9;&#9;&#9;&#9;&#9;&#9;&#9;c0.098,0.517-0.087,1.112,0.252,1.566c0.056-0.07,0.171-0.21,0.227-0.281c0.518,0.2,0.303,0.818,0.137,1.194&#10;&#9;&#9;&#9;&#9;&#9;&#9;&#9;c-0.187,0.396-0.072,0.827,0.025,1.228c-0.114,0.341-0.385,0.605-0.511,0.943c-0.151,0.321-0.105,0.686-0.02,1.018&#10;&#9;&#9;&#9;&#9;&#9;&#9;&#9;c0.239,0.179,0.333,0.463,0.402,0.742c0.152,0.048,0.302,0.099,0.451,0.155c0.295-0.651-0.411-1.298-0.138-1.946&#10;&#9;&#9;&#9;&#9;&#9;&#9;&#9;c0.298-0.305,0.761-0.338,1.162-0.362c0.23,0.02,0.596,0.023,0.631,0.325c0.059,0.521,0.052,1.079-0.165,1.566&#10;&#9;&#9;&#9;&#9;&#9;&#9;&#9;c-0.272-0.001-0.547,0.001-0.82-0.005c-0.08,0.171-0.111,0.357-0.115,0.545c-1.277-0.015-2.555-0.002-3.832-0.006v1.146&#10;&#9;&#9;&#9;&#9;&#9;&#9;&#9;c-0.442,0-0.885,0-1.327-0.001c-0.014,0.196-0.03,0.392-0.041,0.587c-0.519-0.009-1.038,0-1.554,0.051&#10;&#9;&#9;&#9;&#9;&#9;&#9;&#9;c-0.272,0.537-0.19,1.172-0.355,1.745c-0.355-0.05-0.714-0.037-1.072-0.037c-7.111,0.004-14.223-0.003-21.334,0.004&#10;&#9;&#9;&#9;&#9;&#9;&#9;&#9;c-0.392,0.032-0.781-0.02-1.17-0.056c-0.256-0.041-0.608,0.123-0.563,0.427c-0.032,0.204,0.146,0.312,0.273,0.434&#10;&#9;&#9;&#9;&#9;&#9;&#9;&#9;c0.047,0.175,0.046,0.385,0.196,0.511c0.277,0.235,0.712,0.249,0.908,0.584c-0.002,1.205-0.078,2.411-0.096,3.617&#10;&#9;&#9;&#9;&#9;&#9;&#9;&#9;c-0.416-0.001-0.83,0-1.246-0.002c-0.003,0.366-0.03,0.73-0.037,1.096c-0.772,0-1.545-0.001-2.316-0.001&#10;&#9;&#9;&#9;&#9;&#9;&#9;&#9;c-0.3-0.012-0.545,0.193-0.801,0.321c-0.214,0.143-0.512,0.296-0.512,0.593C207.723,120.065,208.045,120.198,208.282,120.338z&#10;&#9;&#9;&#9;&#9;&#9;&#9;&#9; M254.422,107.046c0.013-0.495,0.907-0.506,1.009-0.044c0.111,0.575,0.15,1.162,0.254,1.739&#10;&#9;&#9;&#9;&#9;&#9;&#9;&#9;c-0.321-0.005-0.643-0.005-0.962-0.003C254.341,108.257,254.389,107.621,254.422,107.046z M249.844,107.063&#10;&#9;&#9;&#9;&#9;&#9;&#9;&#9;c0.506-0.359,1.164-0.057,1.728-0.034c-0.038,0.167-0.144,0.296-0.288,0.386c0.023,0.124-0.03,0.396,0.179,0.358&#10;&#9;&#9;&#9;&#9;&#9;&#9;&#9;c0.286,0,0.326-0.35,0.463-0.535c0.014,0.499-0.033,0.997-0.073,1.495c-0.769,0.011-1.537-0.003-2.306,0.008&#10;&#9;&#9;&#9;&#9;&#9;&#9;&#9;C249.761,108.204,249.524,107.556,249.844,107.063z M245.824,106.775c0.057-0.003,0.173-0.008,0.231-0.01&#10;&#9;&#9;&#9;&#9;&#9;&#9;&#9;c-0.051-0.193-0.078-0.388-0.081-0.586c0.37,0.228,0.467,0.686,0.503,1.086c0.025,0.49,0.004,0.98,0.01,1.47&#10;&#9;&#9;&#9;&#9;&#9;&#9;&#9;c-0.305-0.011-0.627,0.057-0.915-0.08c0.058-0.018,0.173-0.054,0.23-0.072c0.034-0.261,0.102-0.517,0.125-0.777&#10;&#9;&#9;&#9;&#9;&#9;&#9;&#9;C245.962,107.455,245.695,107.122,245.824,106.775z M245.041,108.231c0.086,0.164,0.164,0.334,0.235,0.506&#10;&#9;&#9;&#9;&#9;&#9;&#9;&#9;C244.951,108.809,245.029,108.433,245.041,108.231z M244.128,106.915c0.256,0.285,0.561,0.602,0.548,1.012&#10;&#9;&#9;&#9;&#9;&#9;&#9;&#9;c-0.058,0.28-0.186,0.539-0.265,0.813c-0.123-0.003-0.245-0.005-0.366-0.008C244.004,108.126,243.968,107.508,244.128,106.915&#10;&#9;&#9;&#9;&#9;&#9;&#9;&#9;z" style="fill: rgb(204, 204, 204); opacity: 1;"/>
					</g>
				</g>
			</g>
		</g></svg>