<?xml version="1.0" standalone="no"?>
<!DOCTYPE svg PUBLIC "-//W3C//DTD SVG 20010904//EN"
 "http://www.w3.org/TR/2001/REC-SVG-20010904/DTD/svg10.dtd">
<svg version="1.0"
    xmlns="http://www.w3.org/2000/svg" width="300.000000pt" height="84.000000pt" viewBox="0 0 300.000000 84.000000" preserveAspectRatio="xMidYMid meet">
    <metadata>
Created by potrace 1.10, written by Peter Selinger 2001-2011
    </metadata>
    <g transform="translate(0.000000,84.000000) scale(0.100000,-0.100000)" fill="#FFF" stroke="none">
        <path d="M1225 828 c-2 -7 -6 -58 -8 -112 -5 -79 -10 -105 -26 -127 -25 -34
-27 -72 -5 -90 14 -11 15 -36 9 -193 -4 -100 -11 -185 -16 -190 -6 -6 -9 -3
-9 7 0 14 -10 17 -59 17 -58 0 -59 1 -65 31 -3 17 -6 42 -6 55 0 13 -4 24 -10
24 -5 0 -10 6 -10 14 0 7 -9 16 -20 19 -15 4 -20 0 -20 -14 0 -10 -4 -19 -10
-19 -5 0 -10 -13 -10 -30 0 -16 -5 -41 -12 -55 -10 -23 -17 -25 -70 -25 -50 0
-59 3 -57 18 4 43 0 48 -37 44 -28 -3 -39 0 -50 17 -19 26 -40 27 -56 1 -9
-14 -24 -20 -49 -20 l-35 0 1 -52 c1 -29 0 -41 -2 -25 -2 15 -8 27 -14 27 -5
0 -9 30 -9 68 l0 67 -64 -3 -64 -4 5 -54 c4 -37 2 -54 -6 -54 -6 0 -11 18 -11
45 0 43 -1 45 -30 45 -30 0 -30 -1 -30 -55 0 -34 -4 -55 -11 -55 -8 0 -9 29
-4 99 7 92 6 100 -14 120 -12 12 -30 21 -40 21 -22 0 -28 -29 -34 -145 -3 -59
-3 -58 -5 13 l-2 73 -30 -23 -30 -22 6 -118 c5 -86 4 -118 -4 -118 -8 0 -12
24 -12 69 l0 69 -50 4 c-49 3 -50 3 -50 -26 0 -23 -3 -27 -12 -18 -19 19 -32
14 -51 -17 -18 -31 -24 -121 -7 -121 6 0 10 19 10 43 0 23 7 51 15 61 13 18
16 18 40 2 l25 -16 0 35 c0 32 2 35 30 35 l30 0 0 -70 0 -70 32 0 31 0 -7 119
c-4 78 -3 122 4 126 6 4 10 -15 10 -53 0 -58 1 -59 25 -54 24 4 25 8 25 76 0
84 7 116 26 116 11 0 14 -24 14 -115 l0 -115 30 0 c30 0 30 1 30 55 0 30 5 55
10 55 6 0 10 -22 10 -50 0 -49 1 -50 30 -50 30 0 30 0 30 60 l0 60 41 0 42 0
-5 -65 c-5 -51 -3 -65 8 -65 9 0 14 -12 14 -35 0 -31 3 -35 25 -35 23 0 25 4
25 44 0 74 2 76 91 76 56 0 79 -4 80 -12 0 -7 1 -33 2 -58 2 -41 4 -45 27 -45
20 0 25 5 23 23 -3 21 1 22 62 22 l64 0 7 48 c8 58 11 63 29 55 8 -3 15 -18
15 -33 0 -54 7 -60 72 -60 56 0 60 -1 55 -21 -5 -18 -2 -20 21 -14 15 3 30 10
35 14 4 4 10 96 14 203 5 175 4 198 -10 213 -22 21 -21 31 3 52 11 10 21 29
21 43 l2 25 4 -25 c3 -13 14 -30 24 -38 23 -16 25 -50 4 -58 -13 -5 -15 -38
-15 -209 l0 -203 31 -11 c18 -6 36 -11 40 -11 5 0 9 43 9 95 0 78 3 95 15 95
11 0 15 -11 15 -40 0 -36 3 -40 25 -40 25 0 25 1 25 85 0 72 3 88 20 105 30
30 83 30 114 0 15 -15 20 -37 24 -105 4 -74 7 -85 23 -85 13 0 19 9 21 38 2
25 8 37 18 37 12 0 16 -18 18 -92 1 -51 7 -93 12 -93 6 0 10 8 10 18 0 10 13
31 29 46 24 23 36 27 72 24 43 -3 44 -4 41 -35 -3 -33 -3 -33 42 -33 l46 0 0
78 c0 83 9 102 47 102 22 0 23 -3 23 -75 l0 -75 30 0 c24 0 30 4 30 23 0 17
10 26 43 39 23 10 55 18 70 18 29 0 101 32 112 50 4 6 16 3 31 -9 14 -11 41
-22 62 -26 37 -6 37 -6 34 -50 l-4 -45 35 0 c35 0 35 0 30 38 -5 37 -4 37 28
37 l34 0 8 95 c9 114 11 120 37 120 26 0 28 -6 37 -120 l8 -95 33 0 c33 0 33
0 30 -44 -2 -29 1 -46 10 -48 8 -3 12 7 12 31 0 34 2 36 33 36 39 0 57 15 57
47 0 13 6 23 14 23 22 0 26 24 26 166 0 83 4 134 10 134 6 0 10 -53 10 -138 0
-142 5 -162 41 -162 12 0 16 -6 12 -20 -7 -26 13 -50 41 -50 19 0 21 -4 18
-35 -3 -27 -1 -35 12 -35 13 0 16 -11 16 -50 0 -27 5 -50 10 -50 6 0 10 27 10
60 0 33 -4 60 -10 60 -5 0 -10 18 -10 39 0 37 -2 40 -27 38 -24 -2 -29 2 -31
25 -2 16 1 28 7 28 6 0 11 4 11 9 0 6 -17 11 -37 13 l-38 3 -1 141 c-1 159 -4
177 -36 172 -15 -2 -23 -11 -25 -33 -3 -16 -9 -33 -16 -37 -8 -5 -8 -13 1 -30
8 -15 12 -56 10 -118 l-3 -95 -38 -3 c-37 -3 -38 -4 -22 -22 24 -26 16 -54
-18 -58 -22 -3 -27 1 -27 17 0 23 -19 28 -38 9 -21 -21 -34 6 -30 66 1 31 0
56 -4 56 -4 0 -7 16 -6 35 2 49 -33 83 -67 65 -32 -17 -35 -27 -42 -137 -4
-66 -10 -93 -19 -93 -7 0 -16 4 -19 10 -3 5 -13 10 -21 10 -10 0 -14 -14 -16
-47 l-1 -48 -6 50 c-5 44 -9 50 -31 53 -53 6 -71 13 -92 37 l-22 25 -30 -29
c-35 -34 -82 -55 -104 -46 -8 3 -34 -4 -58 -16 -24 -11 -48 -18 -54 -14 -6 4
-10 -6 -10 -24 0 -17 -5 -31 -10 -31 -7 0 -9 25 -4 75 l7 75 -50 0 c-66 0 -83
-23 -83 -115 0 -53 -3 -65 -16 -65 -14 0 -14 3 -4 16 22 26 -16 54 -77 57 -42
2 -56 -2 -77 -22 l-25 -24 -3 63 c-3 72 -22 95 -58 72 -19 -11 -20 -10 -20 32
0 33 -7 52 -26 75 -14 17 -32 31 -40 31 -8 0 -14 7 -14 15 0 20 -36 20 -44 0
-3 -8 -11 -15 -19 -15 -26 0 -59 -48 -64 -93 -5 -40 -7 -43 -29 -39 -43 8 -54
-13 -54 -99 0 -125 -16 -92 -23 49 -11 199 -9 248 8 262 21 17 19 57 -4 86
-15 19 -21 49 -26 139 -7 102 -18 141 -30 103z"/>
    </g>
</svg>
