<svg version="1.1" id="Layer_1"
	xmlns="http://www.w3.org/2000/svg"
	xmlns:xlink="http://www.w3.org/1999/xlink" x="0px" y="0px" width="100%" viewBox="0 0 512 512" enable-background="new 0 0 512 512" xml:space="preserve">
	<path fill="#010100" opacity="1.000000" stroke="none" d="
M311.000000,513.000000 
	C207.358505,513.000000 104.217003,513.000000 1.037753,513.000000 
	C1.037753,342.400146 1.037753,171.800278 1.037753,1.100207 
	C171.558182,1.100207 342.116425,1.100207 512.837341,1.100207 
	C512.837341,171.666534 512.837341,342.333252 512.837341,513.000000 
	C445.800262,513.000000 378.650116,513.000000 311.000000,513.000000 
M151.155029,199.323547 
	C151.637833,199.914139 152.120621,200.504745 153.021667,201.669525 
	C153.812775,203.597504 154.603867,205.525467 155.134781,208.225693 
	C155.099335,210.154877 154.869812,212.104767 155.072769,214.008530 
	C155.397964,217.059158 156.009674,220.079254 156.850006,223.539291 
	C156.994659,223.874908 157.139313,224.210526 157.115021,225.351990 
	C157.671860,226.920883 158.228699,228.489792 159.072433,230.746353 
	C159.179459,231.979507 159.286469,233.212662 159.220276,235.150848 
	C160.361130,236.041611 161.501968,236.932373 162.642822,237.823135 
	C162.882919,237.242722 163.123016,236.662292 163.313950,235.137817 
	C163.276474,231.979965 163.042389,228.808350 163.261917,225.668472 
	C163.447098,223.019730 164.158798,220.407822 165.486038,217.824860 
	C168.042908,217.520554 170.599777,217.216248 173.743515,217.426376 
	C174.130585,219.003983 174.832657,220.577789 174.851654,222.159821 
	C174.947235,230.116013 174.864471,238.074341 174.484818,246.338379 
	C174.971588,246.655014 175.458374,246.971649 176.608810,247.016907 
	C176.984619,246.722488 177.360428,246.428085 178.258179,245.765350 
	C178.128784,244.169220 177.999374,242.573105 177.701492,240.161697 
	C177.717880,239.068237 177.734268,237.974762 178.501633,236.944534 
	C179.685654,236.359695 180.869690,235.774857 182.533615,234.540909 
	C183.047501,232.716202 183.976959,230.898026 184.005692,229.065704 
	C184.156784,219.434631 184.032944,209.799515 184.126572,200.166992 
	C184.143250,198.451843 184.734253,196.742279 185.807846,195.111374 
	C186.556915,195.060120 187.305984,195.008865 188.006271,195.002762 
	C188.006271,195.002762 188.039932,194.946121 188.023773,195.890808 
	C188.054596,206.630875 188.032303,217.371628 188.171432,228.110291 
	C188.193176,229.789352 188.949234,231.458893 189.858444,233.537323 
	C190.231262,234.040421 190.604065,234.543518 191.071655,235.713745 
	C193.387161,236.877808 194.769806,238.316498 194.222641,241.344864 
	C193.962463,242.784851 195.168091,244.489685 196.117279,246.658356 
	C197.395950,247.163162 198.674637,247.667969 200.081329,248.721207 
	C200.631851,249.169891 201.182388,249.618561 201.871124,250.833405 
	C201.925522,251.868073 201.979904,252.902725 202.052536,254.594055 
	C203.013611,254.358337 203.974701,254.122620 204.934830,252.979019 
	C205.229324,249.425354 205.800034,245.868759 205.762497,242.318604 
	C205.676559,234.191315 205.293503,226.067184 205.253937,217.275223 
	C208.609451,211.245758 213.963470,210.226288 220.306473,210.745346 
	C223.181931,210.980652 226.163986,209.913239 229.844925,209.249252 
	C231.291382,208.852966 232.737823,208.456680 234.930283,208.128952 
	C236.549286,207.240921 238.168304,206.352890 239.939636,205.381317 
	C240.545349,205.913818 241.343460,206.615463 242.666199,207.778305 
	C242.780228,206.033768 242.850998,204.951202 242.807007,203.151505 
	C242.865433,202.432800 242.923859,201.714081 243.414124,200.829926 
	C243.687469,200.666397 243.891830,200.440460 244.482880,200.060883 
	C244.482880,200.060883 244.937592,199.964920 245.546646,200.003616 
	C245.747559,199.971680 245.948456,199.939758 246.805801,200.008804 
	C247.228958,200.138565 247.652100,200.268311 248.266861,200.852844 
	C248.958649,201.278351 249.650452,201.703842 250.492661,202.795837 
	C250.451797,203.248886 250.410934,203.701950 250.127274,204.574371 
	C250.407150,204.925964 250.687027,205.277573 250.966904,205.629181 
	C251.342331,205.200165 251.717758,204.771164 252.344620,203.824951 
	C252.628693,203.570175 252.912781,203.315399 253.799210,203.107117 
	C254.401764,203.102509 255.004318,203.097885 255.767105,203.816406 
	C255.789505,204.556168 255.811890,205.295929 255.512268,206.499832 
	C256.620483,207.027008 257.728668,207.554184 259.566559,208.485626 
	C262.345703,208.801224 265.124847,209.116837 268.277557,210.081314 
	C270.197327,210.340942 272.112854,210.638565 274.037750,210.851944 
	C277.590118,211.245789 281.147980,211.590210 284.885162,212.640762 
	C285.548553,213.273926 286.211914,213.907089 286.881500,215.197083 
	C286.866943,216.788635 286.852386,218.380173 286.925415,220.665329 
	C286.870453,221.126083 286.815491,221.586823 286.341492,222.417633 
	C286.478455,223.263641 286.615387,224.109634 286.802063,225.840927 
	C286.810760,227.905670 286.819427,229.970398 286.347839,232.679688 
	C286.657288,239.257202 286.927734,245.837189 287.344147,252.407928 
	C287.380737,252.985336 288.373260,253.502151 288.994598,254.021393 
	C288.994598,254.021393 288.947906,254.082901 289.084717,254.804367 
	C291.941010,257.019104 293.996338,256.249023 295.038269,252.968811 
	C295.579132,251.266098 295.854065,249.407852 295.862610,247.618027 
	C295.951111,229.059631 295.993073,210.500778 295.938232,191.942352 
	C295.933228,190.246094 295.167877,188.552078 294.261444,186.432785 
	C293.852905,185.932129 293.444397,185.431458 293.089203,184.066528 
	C293.060608,182.045929 293.032013,180.025345 293.000000,178.000000 
	C293.000000,178.000000 293.004883,178.003235 293.751343,177.811066 
	C294.469788,174.501297 295.188263,171.191513 295.944977,167.993439 
	C295.944977,167.993439 295.873444,167.899490 296.211060,168.054749 
	C296.506378,167.886047 296.801666,167.717346 297.606537,167.802948 
	C297.830841,168.109116 298.055145,168.415283 298.240509,169.320389 
	C298.647614,169.958664 299.054718,170.596939 299.570709,172.061066 
	C300.186737,175.624207 300.802765,179.187363 300.891296,182.998672 
	C300.620422,183.696884 300.349579,184.395111 299.613953,185.665237 
	C299.259644,187.040894 298.905365,188.416565 297.927826,190.182343 
	C298.089600,193.537018 298.251343,196.891693 298.505066,201.147018 
	C298.658722,218.098862 298.812347,235.050705 298.640411,252.378403 
	C298.995239,252.980453 299.350098,253.582489 299.796509,254.203445 
	C299.796509,254.203445 299.815796,254.294922 300.021362,254.966049 
	C302.062805,254.719650 304.104279,254.473251 306.514557,253.383133 
	C306.534088,239.238342 306.514191,225.093231 306.624786,210.949142 
	C306.638123,209.245514 306.834778,206.546219 307.841248,206.020111 
	C312.190796,203.746475 313.875610,200.401154 313.588654,195.514893 
	C322.676208,214.578384 315.309937,235.128769 319.502930,254.578659 
	C320.311676,253.607300 320.779541,252.610046 320.814911,251.597687 
	C320.919373,248.605850 320.850281,245.608032 320.853668,242.612564 
	C320.870636,227.635330 320.962189,212.657608 320.866150,197.681107 
	C320.833832,192.642059 324.043396,190.145004 327.838135,188.304825 
	C330.521912,187.003372 333.709167,185.169754 336.166138,189.577393 
	C336.759186,190.413956 337.352264,191.250519 338.222107,192.320206 
	C338.222107,192.320206 338.578308,192.384247 338.836365,193.053940 
	C339.110138,194.142776 339.618561,195.230759 339.622589,196.320587 
	C339.688293,214.090912 339.681549,231.861450 339.720917,249.631897 
	C339.724548,251.276596 339.930115,252.920837 340.041962,254.565308 
	C340.636871,254.575989 341.231812,254.586670 341.826752,254.597351 
	C341.970886,252.121552 341.926117,249.616394 342.305267,247.177139 
	C342.820984,243.859650 343.660583,240.592499 344.972809,236.751709 
	C345.061829,234.596939 345.150879,232.442154 345.813141,230.044968 
	C346.184021,229.552338 346.554901,229.059692 347.766632,228.532349 
	C349.430786,228.418289 351.094940,228.304245 353.576874,228.391541 
	C354.135315,228.356232 354.693787,228.320938 356.001038,228.518951 
	C357.837616,229.620255 359.674164,230.721573 361.264160,232.343201 
	C361.327454,232.906738 361.390747,233.470291 361.244354,234.789642 
	C361.396454,235.278015 361.548553,235.766403 361.966644,236.944519 
	C363.972626,237.304031 365.978577,237.663544 368.413910,238.733231 
	C371.301849,239.155029 374.178925,239.683884 377.079742,239.979233 
	C387.085114,240.997910 387.084686,240.966370 388.540405,230.909714 
	C388.630859,230.284790 388.845032,229.677765 389.001648,229.062408 
	C399.224243,224.015320 409.137970,220.055283 417.556976,231.719589 
	C418.397369,230.537506 419.041229,229.631851 420.070068,228.184677 
	C421.004395,232.012329 421.567322,235.091690 422.571655,238.019653 
	C422.930267,239.065216 424.449036,240.557617 425.282440,240.463684 
	C432.863037,239.609177 440.409180,238.448883 447.965393,237.378021 
	C447.669342,236.825211 447.373291,236.272400 447.077271,235.719589 
	C448.109680,233.497864 448.799377,229.668411 450.239929,229.361328 
	C454.268738,228.502502 458.610382,229.043579 462.821289,229.212875 
	C463.232727,229.229431 463.700684,230.458862 463.959412,231.190063 
	C464.943695,233.971848 465.962433,236.749771 466.751038,239.589478 
	C467.264709,241.438950 467.620697,243.387436 467.666992,245.300781 
	C467.790680,250.412277 467.709106,255.528732 467.709106,259.445831 
	C471.147339,261.709656 473.508301,263.264160 475.869263,264.818665 
	C475.720490,265.261261 475.571716,265.703857 475.422913,266.146423 
	C480.715576,265.270081 486.008240,264.393768 492.510803,263.317078 
	C491.622833,250.479767 491.170502,237.577103 489.751587,224.781601 
	C486.993713,199.912170 479.848389,176.329849 468.865082,153.739990 
	C450.262543,115.479462 423.330627,84.557602 388.203400,60.889877 
	C377.313995,53.552906 365.477509,47.494274 353.651184,41.717152 
	C344.884521,37.434669 335.604553,33.985535 326.251801,31.164465 
	C305.268677,24.835342 283.686615,21.642586 261.781464,21.077797 
	C254.375443,20.886845 246.903244,21.281729 239.534576,22.082966 
	C228.215317,23.313768 216.816833,24.463007 205.709824,26.847862 
	C188.755203,30.488297 171.845444,34.501167 156.641251,43.620209 
	C149.891830,47.668316 142.193268,50.153015 135.515472,54.297855 
	C113.424789,68.009315 93.845482,84.702911 76.884766,104.520866 
	C61.598885,122.381805 49.802711,142.351685 40.248215,163.663147 
	C32.513416,180.915741 28.081100,199.156586 24.801907,217.797516 
	C21.756264,235.110764 22.008949,252.454910 22.087757,269.851379 
	C22.092394,270.875000 22.999023,271.894531 23.485909,272.915985 
	C23.886419,272.792145 24.286932,272.668335 24.687445,272.544495 
	C24.902617,270.479401 25.117788,268.414337 25.383076,265.868256 
	C29.303234,266.671692 32.953812,267.419891 36.493092,268.145233 
	C38.993095,263.618866 42.377514,263.107513 51.563499,265.913757 
	C52.026733,263.347992 52.645390,260.856079 52.898418,258.327545 
	C53.444111,252.874374 53.822563,247.403931 54.223164,241.937149 
	C54.332237,240.448639 54.385601,238.940109 54.277470,237.454376 
	C53.819733,231.165253 56.503944,226.702957 62.347145,224.186859 
	C71.431320,230.273727 68.254898,240.475677 70.006592,248.689667 
	C72.539864,248.689667 74.455879,248.689667 76.833115,248.689667 
	C76.833115,246.549255 77.043045,244.726212 76.797417,242.966782 
	C75.623558,234.558487 79.377106,227.733398 84.761742,222.203842 
	C87.790947,219.093124 91.636482,216.959488 92.575157,212.278824 
	C92.608650,212.111816 93.148621,212.046356 93.828590,211.794022 
	C95.142868,214.051453 95.918587,217.382309 97.922760,218.489517 
	C108.033379,224.075195 111.475288,232.802353 111.166039,243.682114 
	C111.119858,245.306808 111.159622,246.933945 111.159622,248.733459 
	C114.015640,248.733459 116.356529,248.733459 118.981384,248.733459 
	C118.981384,246.329346 118.731491,244.309601 119.031525,242.375153 
	C119.734779,237.841064 120.067703,233.097641 121.724068,228.902298 
	C123.731117,223.818649 127.451920,223.701035 130.754242,227.955368 
	C131.915619,229.451538 132.945633,231.049667 134.719437,233.574585 
	C134.316940,228.270782 135.466324,225.014404 139.512787,225.518387 
	C141.453964,216.349304 143.286469,207.693466 145.812759,199.029221 
	C147.638596,198.920822 149.464432,198.812439 151.008041,198.952072 
	C151.008041,198.952072 151.300827,198.717636 151.155029,199.323547 
M46.026577,360.781769 
	C47.318504,363.210052 48.610435,365.638306 49.920822,368.795532 
	C58.197571,385.049744 68.776382,399.773834 81.042046,413.144562 
	C123.375793,459.292297 175.362595,486.033264 238.254608,491.043091 
	C263.352051,493.042267 288.095398,491.405914 312.407593,485.449066 
	C367.459534,471.960419 412.045563,442.162354 446.018860,396.885284 
	C470.389893,364.405396 485.322662,327.883789 490.423615,287.458984 
	C490.732239,285.013184 490.590546,283.830078 486.919983,284.325745 
	C333.805786,284.312897 180.691589,284.298950 27.577387,284.304443 
	C26.176613,284.304474 24.775845,284.564728 23.298206,284.711121 
	C26.182865,309.560699 32.656368,332.834930 42.325325,355.184326 
	C40.770889,355.829407 39.216457,356.474457 37.662022,357.119507 
	C37.880013,357.594330 38.098003,358.069122 38.315994,358.543945 
	C40.936928,358.476196 44.120495,356.103333 46.026577,360.781769 
M253.106903,232.862946 
	C253.115158,225.736313 247.665222,228.865005 244.341965,228.364929 
	C240.722610,227.820297 239.922775,230.195969 239.987686,233.349503 
	C240.110901,239.334656 240.149796,245.327545 239.987198,251.310806 
	C239.838379,256.787201 243.674179,255.713150 246.877289,255.810410 
	C250.134018,255.909302 253.371262,256.277344 253.162888,251.253479 
	C252.921860,245.442139 253.107162,239.613098 253.106903,232.862946 
M264.916718,237.612244 
	C264.916718,235.149139 264.916718,232.686050 264.916718,230.006500 
	C262.447174,230.006500 260.411652,230.006500 258.556396,230.006500 
	C258.556396,238.813141 258.556396,247.215012 258.556396,255.432312 
	C260.856506,255.432312 262.746368,255.432312 264.916718,255.432312 
	C264.916718,249.542786 264.916718,244.062668 264.916718,237.612244 
M229.842209,254.919464 
	C231.160126,254.310760 233.601715,253.741196 233.624481,253.087372 
	C233.891708,245.413956 233.795959,237.727890 233.795959,229.950500 
	C232.061768,229.950500 230.337448,229.950500 228.204147,229.950500 
	C228.204147,234.739182 228.085236,239.176239 228.240936,243.603622 
	C228.370865,247.298599 228.822571,250.982269 229.842209,254.919464 
M276.069305,229.667328 
	C274.832977,230.352539 272.545258,231.003494 272.521606,231.728226 
	C272.263916,239.638092 272.360260,247.559525 272.360260,255.911148 
	C274.486786,255.815430 276.008148,255.746948 276.504333,255.724625 
	C276.504333,246.894501 276.504333,238.637161 276.069305,229.667328 
M220.730682,237.614182 
	C220.730865,236.123749 221.052643,234.536957 220.642822,233.169403 
	C220.213806,231.737854 219.081924,230.516968 218.257248,229.203995 
	C217.581161,230.500717 216.398865,231.765884 216.315735,233.099579 
	C215.934723,239.211655 215.735474,245.344009 215.790604,251.466217 
	C215.800827,252.602203 217.280869,253.724960 218.082550,254.853806 
	C218.963715,253.735672 220.520493,252.666107 220.604980,251.490723 
	C220.912933,247.207062 220.729065,242.888077 220.730682,237.614182 
M156.410004,248.221893 
	C159.120773,248.562759 160.857697,247.431107 159.989731,244.689011 
	C159.391586,242.799362 157.679718,241.262253 156.465561,239.567566 
	C155.195648,240.767776 153.181213,241.787796 152.836533,243.211945 
	C152.361862,245.173187 151.228119,248.585358 156.410004,248.221893 
z"/>
	<path fill="#FBE73B" opacity="1.000000" stroke="none" d="
M159.393478,234.445816 
	C159.286469,233.212662 159.179459,231.979507 158.943176,230.020828 
	C158.303925,227.712250 157.793945,226.129196 157.283966,224.546143 
	C157.139313,224.210526 156.994659,223.874908 156.766724,222.861237 
	C156.253967,217.273254 155.824478,212.363342 155.394958,207.453430 
	C154.603867,205.525467 153.812775,203.597504 152.879059,201.083527 
	C152.257904,199.904236 151.779373,199.310944 151.300827,198.717636 
	C151.300827,198.717636 151.008041,198.952072 151.026062,198.493835 
	C149.069046,198.369598 147.094009,198.703629 145.118973,199.037659 
	C143.286469,207.693466 141.453964,216.349304 139.512787,225.518387 
	C135.466324,225.014404 134.316940,228.270782 134.719437,233.574585 
	C132.945633,231.049667 131.915619,229.451538 130.754242,227.955368 
	C127.451920,223.701035 123.731117,223.818649 121.724068,228.902298 
	C120.067703,233.097641 119.734779,237.841064 119.031525,242.375153 
	C118.731491,244.309601 118.981384,246.329346 118.981384,248.733459 
	C116.356529,248.733459 114.015640,248.733459 111.159622,248.733459 
	C111.159622,246.933945 111.119858,245.306808 111.166039,243.682114 
	C111.475288,232.802353 108.033379,224.075195 97.922760,218.489517 
	C95.918587,217.382309 95.142868,214.051453 93.828590,211.794022 
	C93.148621,212.046356 92.608650,212.111816 92.575157,212.278824 
	C91.636482,216.959488 87.790947,219.093124 84.761742,222.203842 
	C79.377106,227.733398 75.623558,234.558487 76.797417,242.966782 
	C77.043045,244.726212 76.833115,246.549255 76.833115,248.689667 
	C74.455879,248.689667 72.539864,248.689667 70.006592,248.689667 
	C68.254898,240.475677 71.431320,230.273727 62.348717,224.186340 
	C56.503944,226.702957 53.819733,231.165253 54.277470,237.454376 
	C54.385601,238.940109 54.332237,240.448639 54.223164,241.937149 
	C53.822563,247.403931 53.444111,252.874374 52.898418,258.327545 
	C52.645390,260.856079 52.026733,263.347992 51.563499,265.913757 
	C42.377514,263.107513 38.993095,263.618866 36.493092,268.145233 
	C32.953812,267.419891 29.303234,266.671692 25.383076,265.868256 
	C25.117788,268.414337 24.902617,270.479401 24.687445,272.544495 
	C24.286932,272.668335 23.886419,272.792145 23.485909,272.915985 
	C22.999023,271.894531 22.092394,270.875000 22.087757,269.851379 
	C22.008949,252.454910 21.756264,235.110764 24.801907,217.797516 
	C28.081100,199.156586 32.513416,180.915741 40.248215,163.663147 
	C49.802711,142.351685 61.598885,122.381805 76.884766,104.520866 
	C93.845482,84.702911 113.424789,68.009315 135.515472,54.297855 
	C142.193268,50.153015 149.891830,47.668316 156.641251,43.620209 
	C171.845444,34.501167 188.755203,30.488297 205.709824,26.847862 
	C216.816833,24.463007 228.215317,23.313768 239.534576,22.082966 
	C246.903244,21.281729 254.375443,20.886845 261.781464,21.077797 
	C283.686615,21.642586 305.268677,24.835342 326.251801,31.164465 
	C335.604553,33.985535 344.884521,37.434669 353.651184,41.717152 
	C365.477509,47.494274 377.313995,53.552906 388.203400,60.889877 
	C423.330627,84.557602 450.262543,115.479462 468.865082,153.739990 
	C479.848389,176.329849 486.993713,199.912170 489.751587,224.781601 
	C491.170502,237.577103 491.622833,250.479767 492.510803,263.317078 
	C486.008240,264.393768 480.715576,265.270081 475.422913,266.146423 
	C475.571716,265.703857 475.720490,265.261261 475.869263,264.818665 
	C473.508301,263.264160 471.147339,261.709656 467.709106,259.445831 
	C467.709106,255.528732 467.790680,250.412277 467.666992,245.300781 
	C467.620697,243.387436 467.264709,241.438950 466.751038,239.589478 
	C465.962433,236.749771 464.943695,233.971848 463.959412,231.190063 
	C463.700684,230.458862 463.232727,229.229431 462.821289,229.212875 
	C458.610382,229.043579 454.268738,228.502502 450.239929,229.361328 
	C448.799377,229.668411 448.109680,233.497864 447.077271,235.719589 
	C447.373291,236.272400 447.669342,236.825211 447.965393,237.378021 
	C440.409180,238.448883 432.863037,239.609177 425.282440,240.463684 
	C424.449036,240.557617 422.930267,239.065216 422.571655,238.019653 
	C421.567322,235.091690 421.004395,232.012329 420.070068,228.184677 
	C419.041229,229.631851 418.397369,230.537506 417.556976,231.719589 
	C409.137970,220.055283 399.224243,224.015320 389.001648,229.062408 
	C388.845032,229.677765 388.630859,230.284790 388.540405,230.909714 
	C387.084686,240.966370 387.085114,240.997910 377.079742,239.979233 
	C374.178925,239.683884 371.301849,239.155029 368.209961,237.979340 
	C368.222748,236.293594 368.774536,235.284912 368.582428,234.446777 
	C368.244293,232.971497 367.451630,231.600403 366.849304,230.185669 
	C366.300415,231.475769 365.722260,232.754608 365.219604,234.062469 
	C365.056763,234.486130 365.091766,234.985809 365.016968,235.612610 
	C363.903137,235.828308 362.801880,236.041565 361.700684,236.254791 
	C361.548553,235.766403 361.396454,235.278015 361.627960,234.348206 
	C361.844604,233.212128 361.677673,232.517517 361.510742,231.822891 
	C359.674164,230.721573 357.837616,229.620255 355.611786,228.067184 
	C356.225037,226.284164 357.227539,224.952911 358.398438,223.398041 
	C357.075714,222.580811 355.534729,221.628754 353.480652,220.359665 
	C353.201782,223.385971 352.980438,225.788086 352.759094,228.190201 
	C351.094940,228.304245 349.430786,228.418289 347.113037,228.398621 
	C346.052948,228.939056 345.646423,229.613220 345.239868,230.287384 
	C345.150879,232.442154 345.061829,234.596939 344.351746,236.962585 
	C342.911133,237.636505 342.091614,238.099548 340.936829,238.752014 
	C340.936829,236.722321 340.936859,234.921936 340.936829,233.121552 
	C340.936584,221.009155 341.016846,208.895554 340.832092,196.785965 
	C340.809540,195.307617 339.364258,193.850952 338.578308,192.384247 
	C338.578308,192.384247 338.222107,192.320206 338.107941,191.864365 
	C337.412292,190.568695 336.830780,189.728851 336.249298,188.889023 
	C333.709167,185.169754 330.521912,187.003372 327.838135,188.304825 
	C324.043396,190.145004 320.833832,192.642059 320.866150,197.681107 
	C320.962189,212.657608 320.870636,227.635330 320.853668,242.612564 
	C320.850281,245.608032 320.919373,248.605850 320.814911,251.597687 
	C320.779541,252.610046 320.311676,253.607300 319.502930,254.578659 
	C315.309937,235.128769 322.676208,214.578384 313.588654,195.514893 
	C313.875610,200.401154 312.190796,203.746475 307.841248,206.020111 
	C306.834778,206.546219 306.638123,209.245514 306.624786,210.949142 
	C306.514191,225.093231 306.534088,239.238342 305.877930,253.796127 
	C303.432800,254.237717 301.624298,254.266312 299.815796,254.294922 
	C299.815796,254.294922 299.796509,254.203445 299.799866,253.881622 
	C299.524109,253.040726 299.245056,252.521637 298.966003,252.002548 
	C298.812347,235.050705 298.658722,218.098862 298.627838,200.246613 
	C298.684113,196.161560 298.617584,192.976898 298.551086,189.792236 
	C298.905365,188.416565 299.259644,187.040894 300.162720,185.325104 
	C300.947205,184.240143 301.182983,183.495331 301.418762,182.750519 
	C300.802765,179.187363 300.186737,175.624207 299.668365,171.343231 
	C299.270477,169.990753 298.774963,169.356110 298.279449,168.721466 
	C298.055145,168.415283 297.830841,168.109116 297.597778,167.221054 
	C297.588989,157.865936 297.588989,149.092712 297.588989,140.319504 
	C297.017151,140.325684 296.445282,140.331863 295.873444,140.338058 
	C295.873444,149.525208 295.873444,158.712341 295.873444,167.899490 
	C295.873444,167.899490 295.944977,167.993439 295.579254,167.999466 
	C294.477325,171.338074 293.741119,174.670654 293.004883,178.003235 
	C293.004883,178.003235 293.000000,178.000000 292.667114,178.124298 
	C290.567993,180.686020 290.310242,182.965042 293.035889,184.930786 
	C293.444397,185.431458 293.852905,185.932129 294.475769,187.121323 
	C294.677734,194.614380 294.657715,201.418915 294.654572,208.223434 
	C294.648438,221.500931 294.725189,234.779129 294.601379,248.055481 
	C294.569061,251.522934 294.570953,255.595978 288.947906,254.082901 
	C288.947906,254.082901 288.994598,254.021393 289.009613,253.568542 
	C288.292450,246.088852 287.560303,239.061996 286.828125,232.035141 
	C286.819427,229.970398 286.810760,227.905670 287.019470,225.240417 
	C287.078125,223.775803 286.919312,222.911697 286.760529,222.047577 
	C286.815491,221.586823 286.870453,221.126083 287.133301,220.095581 
	C290.522278,215.365860 290.522278,215.365860 286.875305,214.540253 
	C286.211914,213.907089 285.548553,213.273926 285.040558,212.051178 
	C284.555634,210.665039 283.925140,209.189041 283.273468,209.179626 
	C278.152588,209.105652 273.027679,209.312271 267.903992,209.432434 
	C265.124847,209.116837 262.345703,208.801224 259.111053,207.980270 
	C257.715118,206.995178 256.774689,206.515427 255.834274,206.035690 
	C255.811890,205.295929 255.789505,204.556168 255.803467,203.112869 
	C255.773254,201.472763 255.706680,200.536209 255.640106,199.599640 
	C255.366058,199.559174 255.092010,199.518707 254.817963,199.478241 
	C254.277588,200.672363 253.737213,201.866486 253.196854,203.060638 
	C252.912781,203.315399 252.628693,203.570175 251.779846,204.112915 
	C250.933411,204.318924 250.651733,204.236954 250.370071,204.154999 
	C250.410934,203.701950 250.451797,203.248886 250.577545,202.160522 
	C250.499588,200.636673 250.336761,199.748154 250.173920,198.859619 
	C249.474380,199.372437 248.774826,199.885254 248.075256,200.398071 
	C247.652100,200.268311 247.228958,200.138565 246.387329,199.694397 
	C245.625107,199.574982 245.281357,199.769958 244.937592,199.964935 
	C244.937592,199.964920 244.482880,200.060883 243.952362,200.012604 
	C243.275314,200.308014 243.128784,200.651688 242.982269,200.995377 
	C242.923859,201.714081 242.865433,202.432800 242.511795,203.629608 
	C240.818115,202.799225 239.419647,201.490723 238.677551,200.796371 
	C237.249039,203.105759 235.716644,205.583069 234.184265,208.060394 
	C232.737823,208.456680 231.291382,208.852966 229.025482,209.166748 
	C221.442505,209.084229 214.678970,209.084229 207.915421,209.084229 
	C208.180038,209.471481 208.444641,209.858734 208.709244,210.245987 
	C207.073746,212.181656 205.438232,214.117340 203.553223,216.348297 
	C203.784622,216.597794 204.407852,217.269791 205.031082,217.941772 
	C205.293503,226.067184 205.676559,234.191315 205.762497,242.318604 
	C205.800034,245.868759 205.229324,249.425354 204.577728,253.555817 
	C203.491837,254.067535 202.763077,254.002472 202.034302,253.937393 
	C201.979904,252.902725 201.925522,251.868073 201.917633,250.116531 
	C201.293869,248.990692 200.623596,248.581726 199.953323,248.172791 
	C198.674637,247.667969 197.395950,247.163162 195.968964,245.908554 
	C195.820633,242.189407 195.820633,239.220078 195.820633,235.795639 
	C194.167969,235.540070 192.572418,235.293350 190.976868,235.046616 
	C190.604065,234.543518 190.231262,234.040421 189.651398,232.859680 
	C189.449783,221.039444 189.500870,209.896423 189.398087,198.754852 
	C189.386353,197.481216 188.513504,196.215500 188.039932,194.946121 
	C188.039932,194.946121 188.006271,195.002762 187.949509,194.551208 
	C188.204987,190.936264 188.517242,187.772873 188.853806,184.363037 
	C187.494064,184.363037 185.791107,184.363037 185.060059,184.363037 
	C185.060059,188.120544 185.060059,191.575348 185.060059,195.030136 
	C184.734253,196.742279 184.143250,198.451843 184.126572,200.166992 
	C184.032944,209.799515 184.156784,219.434631 184.005692,229.065704 
	C183.976959,230.898026 183.047501,232.716202 181.925262,234.806259 
	C180.128159,235.674835 178.939407,236.278076 177.750656,236.881302 
	C177.734268,237.974762 177.717880,239.068237 177.642563,240.909439 
	C177.634506,243.149338 177.685364,244.641510 177.736237,246.133667 
	C177.360428,246.428085 176.984619,246.722488 176.141800,246.904480 
	C175.397980,246.538666 175.121170,246.285294 174.844345,246.031921 
	C174.864471,238.074341 174.947235,230.116013 174.851654,222.159821 
	C174.832657,220.577789 174.130585,219.003983 173.322357,216.834747 
	C169.739532,214.565872 166.905334,214.649887 164.637451,217.779602 
	C164.158798,220.407822 163.447098,223.019730 163.261917,225.668472 
	C163.042389,228.808350 163.276474,231.979965 162.962433,235.702820 
	C161.538437,235.660477 160.465958,235.053146 159.393478,234.445816 
z"/>
	<path fill="#FBE73B" opacity="1.000000" stroke="none" d="
M49.902374,368.066589 
	C48.610435,365.638306 47.318504,363.210052 46.033665,360.128662 
	C46.428749,359.194458 46.816742,358.913391 47.660107,358.632507 
	C55.677010,358.641022 63.238541,358.649384 71.249763,358.812744 
	C74.845100,358.881775 77.990753,358.795807 81.487106,358.733704 
	C83.212555,358.625427 84.587303,358.493256 86.396072,358.464264 
	C88.887459,358.374268 90.944801,358.181091 93.164230,358.162231 
	C93.795181,358.292450 94.264069,358.248383 95.005157,358.345490 
	C95.970581,358.175964 96.663788,357.865234 97.705750,357.484680 
	C98.962189,357.155365 99.869873,356.895874 101.077621,356.727600 
	C102.032913,356.370148 102.688148,355.921448 103.585808,355.331360 
	C104.231880,354.821747 104.635521,354.453552 105.377411,354.030884 
	C112.210297,347.534698 113.158859,339.575256 108.273758,332.281311 
	C108.264755,332.126862 107.980728,332.004028 107.926270,331.669922 
	C104.896210,329.676270 101.920601,328.016724 98.575790,326.216492 
	C97.159302,325.975555 96.112015,325.875336 95.000427,325.499329 
	C94.315781,324.871094 93.695450,324.518646 93.461998,324.151489 
	C99.038239,322.610596 104.432098,321.355225 106.246445,314.796021 
	C106.613342,313.735077 106.699043,312.865448 106.938667,311.613892 
	C106.990410,310.156158 106.888229,309.080322 106.882050,307.638550 
	C106.068718,305.272552 105.159393,303.272491 104.263664,301.169250 
	C104.277260,301.066071 104.080429,300.998291 104.038872,300.675598 
	C103.367569,299.805603 102.737816,299.258301 101.979919,298.415283 
	C100.568092,297.412384 99.284409,296.705200 97.861496,295.725098 
	C97.147011,295.354095 96.571747,295.256042 95.646622,295.047729 
	C94.564133,294.919586 93.831512,294.901703 92.978287,294.604645 
	C91.905251,294.222931 90.952812,294.120361 89.567551,293.878540 
	C86.422035,293.773773 83.709328,293.808289 80.756775,293.703247 
	C79.779602,293.548309 79.042282,293.532867 77.920471,293.322784 
	C75.370354,293.257568 73.204735,293.386993 70.568428,293.509003 
	C61.831791,293.508850 53.565849,293.516083 44.913818,293.327576 
	C42.860931,293.210938 41.194134,293.290009 39.527336,293.369049 
	C39.539410,293.923920 39.551483,294.478760 39.563557,295.033630 
	C41.365524,295.033630 43.167496,295.033630 45.284622,295.165558 
	C46.906731,296.440887 48.213692,297.584259 49.403923,299.200439 
	C49.379089,317.547150 49.470985,335.421082 49.411568,353.582581 
	C48.563179,354.666382 47.866104,355.462677 46.817345,356.161133 
	C45.335236,355.708466 44.204819,355.353546 43.074402,354.998657 
	C32.656368,332.834930 26.182865,309.560699 23.298206,284.711121 
	C24.775845,284.564728 26.176613,284.304474 27.577387,284.304443 
	C180.691589,284.298950 333.805786,284.312897 487.447693,284.803467 
	C488.018402,286.605621 488.265228,287.960175 488.074188,289.249908 
	C484.666504,312.252014 478.268127,334.356598 467.987152,355.264038 
	C467.462860,356.330292 466.231750,357.048981 465.346649,357.465515 
	C465.329529,349.666351 465.295471,342.331146 465.476196,334.646210 
	C465.788940,322.861664 465.886932,311.426910 466.133972,299.686707 
	C467.768097,298.070160 469.253143,296.759003 471.125977,295.551636 
	C473.300110,295.394531 475.086456,295.133667 476.872803,294.872772 
	C476.830048,294.319916 476.787292,293.767059 476.744537,293.214203 
	C474.866302,293.317474 472.988068,293.420776 470.648682,293.484314 
	C465.534271,293.461212 460.881073,293.477783 455.882019,293.321899 
	C454.487183,293.331421 453.438110,293.513397 452.389038,293.695343 
	C452.433441,294.105225 452.477844,294.515106 452.522217,294.924988 
	C453.697601,294.924988 454.872986,294.924988 456.418884,294.991699 
	C460.558075,295.374847 463.092621,297.180389 463.788757,301.367249 
	C463.582764,310.397034 463.630615,319.061127 463.432922,327.719635 
	C463.396973,329.293243 462.356964,330.843903 461.621765,332.149780 
	C460.945099,331.283905 460.427185,330.673340 459.912842,329.749878 
	C459.337769,328.895447 458.759155,328.353882 458.000061,327.531281 
	C449.832794,317.109436 441.959595,306.875000 433.751495,296.916595 
	C432.321259,295.181396 429.519470,293.758942 427.282257,293.653412 
	C419.186981,293.271545 411.062317,293.512604 402.672424,293.319611 
	C400.642273,293.222626 398.888458,293.324615 396.666687,293.405060 
	C390.546661,293.409210 384.894623,293.434875 378.942566,293.412903 
	C378.791931,293.868256 378.941345,294.371246 379.490173,294.910095 
	C387.135345,295.745605 388.115906,297.190979 386.154175,304.163727 
	C385.753723,305.587128 385.373566,307.016205 384.794434,308.640656 
	C384.541046,309.193359 384.477295,309.548126 384.177765,310.126953 
	C381.557281,316.501648 379.249603,322.684082 376.726624,328.777374 
	C376.184998,330.085358 374.864624,331.070862 373.816345,331.836731 
	C370.509796,322.784271 367.193237,314.133850 364.132141,305.393982 
	C363.275726,302.948853 362.173584,299.826752 363.022156,297.775513 
	C363.776215,295.952667 367.076752,295.183258 369.437347,293.844482 
	C356.906708,293.844482 344.464783,293.844482 332.022858,293.844482 
	C338.925934,295.084320 339.619965,300.881714 341.415955,306.280334 
	C341.684235,308.537170 342.413788,310.594391 341.883881,312.248047 
	C340.136353,317.701904 338.032288,323.051300 335.815887,328.336273 
	C335.406158,329.313110 333.835785,329.803162 332.713135,330.139496 
	C329.456818,320.836273 326.171631,311.950684 323.160095,302.973297 
	C321.052490,296.690582 321.418518,296.256195 328.714569,293.997864 
	C315.745728,293.997864 303.814575,293.997864 291.883453,293.997864 
	C296.331543,294.800385 298.694763,297.488007 300.104340,301.428040 
	C301.280060,304.714325 302.707184,307.910583 303.884796,311.196228 
	C309.096863,325.738190 314.263733,340.296356 319.434235,354.853180 
	C320.251343,357.153564 321.159851,358.851929 324.258362,358.804474 
	C327.147217,358.760254 328.378479,357.642151 329.242157,355.111328 
	C331.496735,348.505066 333.947113,341.965637 336.590759,335.182098 
	C339.393738,328.504486 341.925354,322.044281 344.873474,314.521210 
	C346.791656,318.702179 348.131714,321.623016 349.515137,324.896301 
	C349.940155,326.108185 350.321777,326.967529 350.625671,328.178802 
	C351.517456,330.873383 352.487000,333.216034 353.493774,335.924377 
	C354.223145,338.137207 354.915253,339.984375 355.568970,342.194824 
	C356.587921,345.163757 357.645294,347.769379 358.727844,350.735260 
	C359.320587,352.683228 359.888153,354.270996 360.421570,356.164429 
	C360.879211,357.051819 361.371002,357.633545 362.216949,358.406799 
	C366.921417,359.608978 369.276367,357.883057 370.370392,353.541779 
	C371.333923,349.718536 372.908722,346.049316 374.485840,342.096588 
	C378.708496,331.328003 382.658905,320.774902 386.645142,310.159912 
	C386.680969,310.098053 386.655029,309.957458 386.852356,309.650818 
	C387.862915,307.130402 388.676178,304.916626 389.705505,302.482422 
	C390.170776,301.489410 390.419983,300.716888 390.881836,299.662018 
	C392.966919,298.049408 394.839417,296.719147 397.092834,295.489746 
	C399.307495,295.403473 401.141266,295.216278 403.311371,295.124268 
	C406.966827,297.388672 410.667450,299.244110 410.710327,304.365417 
	C410.337311,320.815643 410.111938,336.886902 409.680420,353.237061 
	C407.732300,354.586792 405.990295,355.657593 403.878601,356.599243 
	C401.524841,356.705536 399.540741,356.940979 397.556671,357.176422 
	C397.590027,357.680878 397.623413,358.185364 397.656799,358.689819 
	C399.816132,358.689819 401.975494,358.689819 404.588898,358.722351 
	C409.318359,358.733795 413.593750,358.712738 418.266937,358.813293 
	C420.291992,358.934906 421.919312,358.934906 423.546600,358.934906 
	C423.553558,358.358063 423.560516,357.781219 423.567474,357.204376 
	C421.622589,357.054932 419.677704,356.905487 417.409912,356.579041 
	C415.401154,354.595673 413.715302,352.789307 412.126160,350.523865 
	C412.231354,336.825226 412.186859,323.585083 412.324249,310.346863 
	C412.339233,308.903259 413.402740,307.470520 414.119690,306.339203 
	C425.791748,321.563873 437.674255,336.229919 448.683716,351.524445 
	C453.083771,357.637115 457.909973,359.850189 464.990753,358.941132 
	C464.610535,360.911011 464.365906,362.593384 463.634674,364.027710 
	C454.350983,382.238617 442.664948,398.827606 428.781860,413.771515 
	C406.538116,437.714844 380.693756,456.718262 350.632690,469.904724 
	C311.112091,487.240662 269.993378,493.658234 227.228287,487.824066 
	C183.882828,481.910767 145.134293,465.093994 110.766701,437.846130 
	C87.235474,419.189667 68.033638,396.997955 52.848755,371.192383 
	C52.140728,369.989136 50.896755,369.101288 49.902374,368.066589 
M159.775665,295.116272 
	C161.164978,295.098328 162.554306,295.080353 164.349670,295.914246 
	C164.379440,313.934326 164.483795,331.955017 164.338364,349.973663 
	C164.321442,352.069763 162.921692,354.154633 161.347260,356.156464 
	C158.824310,356.582703 156.301376,357.008972 153.778427,357.435211 
	C153.825317,357.839752 153.872208,358.244263 153.919098,358.648773 
	C156.682190,358.648773 159.445282,358.648773 163.118683,358.674438 
	C171.345642,358.665955 179.572601,358.657501 188.656815,358.941132 
	C191.025497,358.941132 193.394180,358.941132 195.762863,358.941132 
	C195.775787,358.347412 195.788712,357.753662 195.801651,357.159943 
	C193.159912,356.831390 190.518188,356.502838 187.232468,355.686646 
	C186.639816,353.168304 185.561630,350.655243 185.534302,348.130798 
	C185.372803,333.213135 185.426773,318.292725 185.481628,303.373505 
	C185.491867,300.591553 185.835587,297.810852 186.804459,295.174164 
	C187.853058,295.135559 188.901642,295.096985 190.553314,295.352356 
	C198.835205,301.379547 202.258072,310.685272 206.691879,319.972290 
	C207.434937,320.614624 208.177979,321.256927 208.921036,321.899261 
	C209.091187,321.281616 209.261337,320.663971 209.478973,319.218109 
	C209.478973,310.804047 209.478973,302.389984 209.478973,293.530151 
	C202.530869,293.530151 196.399857,293.530151 189.623093,293.148621 
	C188.431641,293.278900 187.240173,293.409180 185.106903,293.497253 
	C178.053909,293.511810 171.000900,293.526367 163.444992,293.135651 
	C161.986069,293.252808 160.527145,293.369965 158.124313,293.437836 
	C152.389572,293.437836 146.654846,293.437836 141.000519,293.437836 
	C141.000519,303.362823 141.000519,312.534363 141.000519,320.894257 
	C146.871017,312.407593 152.913712,303.671997 159.775665,295.116272 
M286.667816,321.426514 
	C286.562805,321.031006 286.457794,320.635529 286.650482,319.671967 
	C286.388916,319.120117 286.127350,318.568298 285.799683,317.279907 
	C281.835693,303.978943 272.773407,296.285980 258.955627,292.736786 
	C253.170578,292.957764 247.385544,293.178711 240.848663,293.506714 
	C224.170029,298.372528 214.730865,310.977936 215.301132,327.623871 
	C215.821381,342.809509 226.788925,355.613647 242.661911,359.314301 
	C247.095627,359.416687 251.529327,359.519043 256.809631,359.536102 
	C258.463654,359.161072 260.117645,358.786072 262.351837,358.586273 
	C263.014587,358.183380 263.677307,357.780487 265.023621,357.221252 
	C267.636658,355.729889 270.249664,354.238525 273.477386,352.757111 
	C274.001831,352.184753 274.526276,351.612396 275.610992,350.677979 
	C280.625549,346.099182 284.526215,340.839569 286.275604,333.538147 
	C286.291626,332.939178 286.307648,332.340179 286.528778,331.168884 
	C286.576813,330.767670 286.624817,330.366486 287.130035,329.375153 
	C286.982971,326.930664 286.835907,324.486206 286.667816,321.426514 
M142.341537,339.476654 
	C142.341537,336.393127 142.341537,333.309631 142.341537,330.242065 
	C134.201935,330.242065 126.822548,330.242065 119.277397,330.242065 
	C119.277397,334.957214 119.277397,339.338257 119.277397,344.238922 
	C126.353447,344.238922 133.125000,344.375336 139.876755,344.071625 
	C140.750916,344.032257 141.522751,341.718506 142.341537,339.476654 
z"/>
	<path fill="#AC9E28" opacity="1.000000" stroke="none" d="
M465.329712,357.929504 
	C466.231750,357.048981 467.462860,356.330292 467.987152,355.264038 
	C478.268127,334.356598 484.666504,312.252014 488.074188,289.249908 
	C488.265228,287.960175 488.018402,286.605621 487.900879,284.868042 
	C490.590546,283.830078 490.732239,285.013184 490.423615,287.458984 
	C485.322662,327.883789 470.389893,364.405396 446.018860,396.885284 
	C412.045563,442.162354 367.459534,471.960419 312.407593,485.449066 
	C288.095398,491.405914 263.352051,493.042267 238.254608,491.043091 
	C175.362595,486.033264 123.375793,459.292297 81.042046,413.144562 
	C68.776382,399.773834 58.197571,385.049744 49.911598,368.431061 
	C50.896755,369.101288 52.140728,369.989136 52.848755,371.192383 
	C68.033638,396.997955 87.235474,419.189667 110.766701,437.846130 
	C145.134293,465.093994 183.882828,481.910767 227.228287,487.824066 
	C269.993378,493.658234 311.112091,487.240662 350.632690,469.904724 
	C380.693756,456.718262 406.538116,437.714844 428.781860,413.771515 
	C442.664948,398.827606 454.350983,382.238617 463.634674,364.027710 
	C464.365906,362.593384 464.610535,360.911011 464.997131,358.717682 
	C464.912994,358.091431 465.329712,357.929474 465.329712,357.929504 
z"/>
	<path fill="#F2E139" opacity="1.000000" stroke="none" d="
M253.107147,233.327347 
	C253.107162,239.613098 252.921860,245.442139 253.162888,251.253479 
	C253.371262,256.277344 250.134018,255.909302 246.877289,255.810410 
	C243.674179,255.713150 239.838379,256.787201 239.987198,251.310806 
	C240.149796,245.327545 240.110901,239.334656 239.987686,233.349503 
	C239.922775,230.195969 240.722610,227.820297 244.341965,228.364929 
	C247.665222,228.865005 253.115158,225.736313 253.107147,233.327347 
z"/>
	<path fill="#E4D736" opacity="1.000000" stroke="none" d="
M264.916718,238.097412 
	C264.916718,244.062668 264.916718,249.542786 264.916718,255.432312 
	C262.746368,255.432312 260.856506,255.432312 258.556396,255.432312 
	C258.556396,247.215012 258.556396,238.813141 258.556396,230.006500 
	C260.411652,230.006500 262.447174,230.006500 264.916718,230.006500 
	C264.916718,232.686050 264.916718,235.149139 264.916718,238.097412 
z"/>
	<path fill="#DCCD34" opacity="1.000000" stroke="none" d="
M229.487000,254.795197 
	C228.822571,250.982269 228.370865,247.298599 228.240936,243.603622 
	C228.085236,239.176239 228.204147,234.739182 228.204147,229.950500 
	C230.337448,229.950500 232.061768,229.950500 233.795959,229.950500 
	C233.795959,237.727890 233.891708,245.413956 233.624481,253.087372 
	C233.601715,253.741196 231.160126,254.310760 229.487000,254.795197 
z"/>
	<path fill="#C5BA2F" opacity="1.000000" stroke="none" d="
M276.286804,230.023590 
	C276.504333,238.637161 276.504333,246.894501 276.504333,255.724625 
	C276.008148,255.746948 274.486786,255.815430 272.360260,255.911148 
	C272.360260,247.559525 272.263916,239.638092 272.521606,231.728226 
	C272.545258,231.003494 274.832977,230.352539 276.286804,230.023590 
z"/>
	<path fill="#C8BC2F" opacity="1.000000" stroke="none" d="
M220.730621,238.098297 
	C220.729065,242.888077 220.912933,247.207062 220.604980,251.490723 
	C220.520493,252.666107 218.963715,253.735672 218.082550,254.853821 
	C217.280869,253.724960 215.800827,252.602203 215.790604,251.466217 
	C215.735474,245.344009 215.934723,239.211655 216.315735,233.099579 
	C216.398865,231.765884 217.581161,230.500717 218.257263,229.203995 
	C219.081924,230.516968 220.213806,231.737854 220.642822,233.169403 
	C221.052643,234.536957 220.730865,236.123749 220.730621,238.098297 
z"/>
	<path fill="#35310C" opacity="1.000000" stroke="none" d="
M289.016296,254.443634 
	C294.570953,255.595978 294.569061,251.522934 294.601379,248.055481 
	C294.725189,234.779129 294.648438,221.500931 294.654572,208.223434 
	C294.657715,201.418915 294.677734,194.614380 294.722839,187.333435 
	C295.167877,188.552078 295.933228,190.246094 295.938232,191.942352 
	C295.993073,210.500778 295.951111,229.059631 295.862610,247.618027 
	C295.854065,249.407852 295.579132,251.266098 295.038269,252.968811 
	C293.996338,256.249023 291.941010,257.019104 289.016296,254.443634 
z"/>
	<path fill="#AC9E28" opacity="1.000000" stroke="none" d="
M338.707336,192.719086 
	C339.364258,193.850952 340.809540,195.307617 340.832092,196.785965 
	C341.016846,208.895554 340.936584,221.009155 340.936829,233.121552 
	C340.936859,234.921936 340.936829,236.722321 340.936829,238.752014 
	C342.091614,238.099548 342.911133,237.636505 344.045959,237.238617 
	C343.660583,240.592499 342.820984,243.859650 342.305267,247.177139 
	C341.926117,249.616394 341.970886,252.121552 341.826752,254.597351 
	C341.231812,254.586670 340.636871,254.575989 340.041962,254.565308 
	C339.930115,252.920837 339.724548,251.276596 339.720917,249.631897 
	C339.681549,231.861450 339.688293,214.090912 339.622589,196.320587 
	C339.618561,195.230759 339.110138,194.142776 338.707336,192.719086 
z"/>
	<path fill="#35310C" opacity="1.000000" stroke="none" d="
M188.031860,195.418457 
	C188.513504,196.215500 189.386353,197.481216 189.398087,198.754852 
	C189.500870,209.896423 189.449783,221.039444 189.405029,232.657440 
	C188.949234,231.458893 188.193176,229.789352 188.171432,228.110291 
	C188.032303,217.371628 188.054596,206.630875 188.031860,195.418457 
z"/>
	<path fill="#E4D736" opacity="1.000000" stroke="none" d="
M156.039246,248.221222 
	C151.228119,248.585358 152.361862,245.173187 152.836533,243.211945 
	C153.181213,241.787796 155.195648,240.767776 156.465576,239.567566 
	C157.679718,241.262253 159.391586,242.799362 159.989731,244.689011 
	C160.857697,247.431107 159.120773,248.562759 156.039246,248.221222 
z"/>
	<path fill="#35310C" opacity="1.000000" stroke="none" d="
M205.142517,217.608490 
	C204.407852,217.269791 203.784622,216.597794 203.553223,216.348297 
	C205.438232,214.117340 207.073746,212.181656 208.709244,210.245987 
	C208.444641,209.858734 208.180038,209.471481 207.915421,209.084229 
	C214.678970,209.084229 221.442505,209.084229 228.651871,209.260498 
	C226.163986,209.913239 223.181931,210.980652 220.306473,210.745346 
	C213.963470,210.226288 208.609451,211.245758 205.142517,217.608490 
z"/>
	<path fill="#35310C" opacity="1.000000" stroke="none" d="
M296.042236,167.977112 
	C295.873444,158.712341 295.873444,149.525208 295.873444,140.338058 
	C296.445282,140.331863 297.017151,140.325684 297.588989,140.319504 
	C297.588989,149.092712 297.588989,157.865936 297.342987,167.093903 
	C296.801666,167.717346 296.506378,167.886047 296.042236,167.977112 
z"/>
	<path fill="#35310C" opacity="1.000000" stroke="none" d="
M286.587982,232.357422 
	C287.560303,239.061996 288.292450,246.088852 288.973206,253.581406 
	C288.373260,253.502151 287.380737,252.985336 287.344147,252.407928 
	C286.927734,245.837189 286.657288,239.257202 286.587982,232.357422 
z"/>
	<path fill="#35310C" opacity="1.000000" stroke="none" d="
M185.433960,195.070755 
	C185.060059,191.575348 185.060059,188.120544 185.060059,184.363037 
	C185.791107,184.363037 187.494064,184.363037 188.853806,184.363037 
	C188.517242,187.772873 188.204987,190.936264 187.973907,194.528641 
	C187.305984,195.008865 186.556915,195.060120 185.433960,195.070755 
z"/>
	<path fill="#35310C" opacity="1.000000" stroke="none" d="
M268.090759,209.756866 
	C273.027679,209.312271 278.152588,209.105652 283.273468,209.179626 
	C283.925140,209.189041 284.555634,210.665039 284.949768,211.708405 
	C281.147980,211.590210 277.590118,211.245789 274.037750,210.851944 
	C272.112854,210.638565 270.197327,210.340942 268.090759,209.756866 
z"/>
	<path fill="#AC9E28" opacity="1.000000" stroke="none" d="
M361.833649,236.599670 
	C362.801880,236.041565 363.903137,235.828308 365.016968,235.612610 
	C365.091766,234.985809 365.056763,234.486130 365.219604,234.062469 
	C365.722260,232.754608 366.300415,231.475769 366.849304,230.185669 
	C367.451630,231.600403 368.244293,232.971497 368.582428,234.446777 
	C368.774536,235.284912 368.222748,236.293594 367.995270,237.624252 
	C365.978577,237.663544 363.972626,237.304031 361.833649,236.599670 
z"/>
	<path fill="#35310C" opacity="1.000000" stroke="none" d="
M234.557266,208.094666 
	C235.716644,205.583069 237.249039,203.105759 238.677551,200.796371 
	C239.419647,201.490723 240.818115,202.799225 242.569168,203.988190 
	C242.850998,204.951202 242.780228,206.033768 242.666199,207.778305 
	C241.343460,206.615463 240.545349,205.913818 239.939636,205.381317 
	C238.168304,206.352890 236.549286,207.240921 234.557266,208.094666 
z"/>
	<path fill="#35310C" opacity="1.000000" stroke="none" d="
M155.264877,207.839569 
	C155.824478,212.363342 156.253967,217.273254 156.591888,222.647705 
	C156.009674,220.079254 155.397964,217.059158 155.072769,214.008530 
	C154.869812,212.104767 155.099335,210.154877 155.264877,207.839569 
z"/>
	<path fill="#AC9E28" opacity="1.000000" stroke="none" d="
M353.167999,228.290863 
	C352.980438,225.788086 353.201782,223.385971 353.480652,220.359665 
	C355.534729,221.628754 357.075714,222.580811 358.398438,223.398041 
	C357.227539,224.952911 356.225037,226.284164 355.237366,227.950531 
	C354.693787,228.320938 354.135315,228.356232 353.167999,228.290863 
z"/>
	<path fill="#35310C" opacity="1.000000" stroke="none" d="
M191.024261,235.380188 
	C192.572418,235.293350 194.167969,235.540070 195.820633,235.795639 
	C195.820633,239.220078 195.820633,242.189407 195.765167,245.616638 
	C195.168091,244.489685 193.962463,242.784851 194.222641,241.344864 
	C194.769806,238.316498 193.387161,236.877808 191.024261,235.380188 
z"/>
	<path fill="#726A1B" opacity="1.000000" stroke="none" d="
M47.204727,358.632324 
	C46.816742,358.913391 46.428749,359.194458 45.891373,359.802917 
	C44.120495,356.103333 40.936928,358.476196 38.315994,358.543945 
	C38.098003,358.069122 37.880013,357.594330 37.662022,357.119507 
	C39.216457,356.474457 40.770889,355.829407 42.699863,355.091492 
	C44.204819,355.353546 45.335236,355.708466 46.842583,356.459778 
	C47.214584,357.448242 47.209652,358.040283 47.204727,358.632324 
z"/>
	<path fill="#655D17" opacity="1.000000" stroke="none" d="
M298.239441,189.987289 
	C298.617584,192.976898 298.684113,196.161560 298.581848,199.796295 
	C298.251343,196.891693 298.089600,193.537018 298.239441,189.987289 
z"/>
	<path fill="#35310C" opacity="1.000000" stroke="none" d="
M293.378113,177.907150 
	C293.741119,174.670654 294.477325,171.338074 295.560120,167.943619 
	C295.188263,171.191513 294.469788,174.501297 293.378113,177.907150 
z"/>
	<path fill="#35310C" opacity="1.000000" stroke="none" d="
M286.878418,214.868668 
	C290.522278,215.365860 290.522278,215.365860 287.089539,219.748779 
	C286.852386,218.380173 286.866943,216.788635 286.878418,214.868668 
z"/>
	<path fill="#35310C" opacity="1.000000" stroke="none" d="
M165.061737,217.802231 
	C166.905334,214.649887 169.739532,214.565872 173.028915,216.577515 
	C170.599777,217.216248 168.042908,217.520554 165.061737,217.802231 
z"/>
	<path fill="#35310C" opacity="1.000000" stroke="none" d="
M293.062561,184.498657 
	C290.310242,182.965042 290.567993,180.686020 292.668823,178.126678 
	C293.032013,180.025345 293.060608,182.045929 293.062561,184.498657 
z"/>
	<path fill="#655D17" opacity="1.000000" stroke="none" d="
M299.918579,254.630493 
	C301.624298,254.266312 303.432800,254.237717 305.693512,254.217987 
	C304.104279,254.473251 302.062805,254.719650 299.918579,254.630493 
z"/>
	<path fill="#35310C" opacity="1.000000" stroke="none" d="
M145.465866,199.033447 
	C147.094009,198.703629 149.069046,198.369598 151.167175,198.369812 
	C149.464432,198.812439 147.638596,198.920822 145.465866,199.033447 
z"/>
	<path fill="#35310C" opacity="1.000000" stroke="none" d="
M159.306885,234.798340 
	C160.465958,235.053146 161.538437,235.660477 162.987000,236.174835 
	C163.123016,236.662292 162.882919,237.242722 162.642822,237.823135 
	C161.501968,236.932373 160.361130,236.041611 159.306885,234.798340 
z"/>
	<path fill="#35310C" opacity="1.000000" stroke="none" d="
M248.171051,200.625458 
	C248.774826,199.885254 249.474380,199.372437 250.173920,198.859619 
	C250.336761,199.748154 250.499588,200.636673 250.502319,201.827271 
	C249.650452,201.703842 248.958649,201.278351 248.171051,200.625458 
z"/>
	<path fill="#35310C" opacity="1.000000" stroke="none" d="
M177.997208,245.949509 
	C177.685364,244.641510 177.634506,243.149338 177.726807,241.317078 
	C177.999374,242.573105 178.128784,244.169220 177.997208,245.949509 
z"/>
	<path fill="#35310C" opacity="1.000000" stroke="none" d="
M157.199493,224.949066 
	C157.793945,226.129196 158.303925,227.712250 158.799728,229.677002 
	C158.228699,228.489792 157.671860,226.920883 157.199493,224.949066 
z"/>
	<path fill="#35310C" opacity="1.000000" stroke="none" d="
M253.498016,203.083862 
	C253.737213,201.866486 254.277588,200.672363 254.817963,199.478241 
	C255.092010,199.518707 255.366058,199.559174 255.640106,199.599640 
	C255.706680,200.536209 255.773254,201.472763 255.723343,202.751297 
	C255.004318,203.097885 254.401764,203.102509 253.498016,203.083862 
z"/>
	<path fill="#35310C" opacity="1.000000" stroke="none" d="
M178.126144,236.912918 
	C178.939407,236.278076 180.128159,235.674835 181.685303,235.130814 
	C180.869690,235.774857 179.685654,236.359695 178.126144,236.912918 
z"/>
	<path fill="#35310C" opacity="1.000000" stroke="none" d="
M255.673279,206.267761 
	C256.774689,206.515427 257.715118,206.995178 258.746216,207.778137 
	C257.728668,207.554184 256.620483,207.027008 255.673279,206.267761 
z"/>
	<path fill="#35310C" opacity="1.000000" stroke="none" d="
M286.551025,222.232605 
	C286.919312,222.911697 287.078125,223.775803 286.994629,224.797775 
	C286.615387,224.109634 286.478455,223.263641 286.551025,222.232605 
z"/>
	<path fill="#35310C" opacity="1.000000" stroke="none" d="
M202.043427,254.265717 
	C202.763077,254.002472 203.491837,254.067535 204.578186,254.009750 
	C203.974701,254.122620 203.013611,254.358337 202.043427,254.265717 
z"/>
	<path fill="#AC9E28" opacity="1.000000" stroke="none" d="
M336.207703,189.233215 
	C336.830780,189.728851 337.412292,190.568695 337.969543,191.747803 
	C337.352264,191.250519 336.759186,190.413956 336.207703,189.233215 
z"/>
	<path fill="#35310C" opacity="1.000000" stroke="none" d="
M174.664581,246.185150 
	C175.121170,246.285294 175.397980,246.538666 175.809967,247.040161 
	C175.458374,246.971649 174.971588,246.655014 174.664581,246.185150 
z"/>
	<path fill="#35310C" opacity="1.000000" stroke="none" d="
M250.248672,204.364685 
	C250.651733,204.236954 250.933411,204.318924 251.654144,204.371521 
	C251.717758,204.771164 251.342331,205.200165 250.966904,205.629181 
	C250.687027,205.277573 250.407150,204.925964 250.248672,204.364685 
z"/>
	<path fill="#AC9E28" opacity="1.000000" stroke="none" d="
M345.526489,230.166168 
	C345.646423,229.613220 346.052948,228.939056 346.692627,228.415970 
	C346.554901,229.059692 346.184021,229.552338 345.526489,230.166168 
z"/>
	<path fill="#35310C" opacity="1.000000" stroke="none" d="
M151.227936,199.020599 
	C151.779373,199.310944 152.257904,199.904236 152.669937,200.796448 
	C152.120621,200.504745 151.637833,199.914139 151.227936,199.020599 
z"/>
	<path fill="#AC9E28" opacity="1.000000" stroke="none" d="
M361.387451,232.083038 
	C361.677673,232.517517 361.844604,233.212128 361.732788,233.970291 
	C361.390747,233.470291 361.327454,232.906738 361.387451,232.083038 
z"/>
	<path fill="#655D17" opacity="1.000000" stroke="none" d="
M298.259979,169.020935 
	C298.774963,169.356110 299.270477,169.990753 299.613922,170.930298 
	C299.054718,170.596939 298.647614,169.958664 298.259979,169.020935 
z"/>
	<path fill="#655D17" opacity="1.000000" stroke="none" d="
M301.155029,182.874603 
	C301.182983,183.495331 300.947205,184.240143 300.395081,185.039154 
	C300.349579,184.395111 300.620422,183.696884 301.155029,182.874603 
z"/>
	<path fill="#655D17" opacity="1.000000" stroke="none" d="
M298.803223,252.190475 
	C299.245056,252.521637 299.524109,253.040726 299.754089,253.872162 
	C299.350098,253.582489 298.995239,252.980453 298.803223,252.190475 
z"/>
	<path fill="#35310C" opacity="1.000000" stroke="none" d="
M200.017334,248.446991 
	C200.623596,248.581726 201.293869,248.990692 201.848526,249.733459 
	C201.182388,249.618561 200.631851,249.169891 200.017334,248.446991 
z"/>
	<path fill="#35310C" opacity="1.000000" stroke="none" d="
M243.198181,200.912659 
	C243.128784,200.651688 243.275314,200.308014 243.724518,200.058228 
	C243.891830,200.440460 243.687469,200.666397 243.198181,200.912659 
z"/>
	<path fill="#35310C" opacity="1.000000" stroke="none" d="
M245.242126,199.984283 
	C245.281357,199.769958 245.625107,199.574982 246.059113,199.643921 
	C245.948456,199.939758 245.747559,199.971680 245.242126,199.984283 
z"/>
	<path fill="#060501" opacity="1.000000" stroke="none" d="
M465.346619,357.465515 
	C465.329712,357.929474 464.912994,358.091431 464.906616,358.314880 
	C457.909973,359.850189 453.083771,357.637115 448.683716,351.524445 
	C437.674255,336.229919 425.791748,321.563873 414.085175,305.984741 
	C412.893250,304.877991 411.875610,304.432190 410.858002,303.986389 
	C410.667450,299.244110 406.966827,297.388672 403.303772,294.746643 
	C402.956116,294.022095 402.952454,293.770325 402.948761,293.518555 
	C411.062317,293.512604 419.186981,293.271545 427.282257,293.653412 
	C429.519470,293.758942 432.321259,295.181396 433.751495,296.916595 
	C441.959595,306.875000 449.832794,317.109436 457.979858,327.853607 
	C458.729889,328.992218 459.319580,329.527496 459.909271,330.062775 
	C460.427185,330.673340 460.945099,331.283905 461.638519,332.502380 
	C462.963135,333.738861 464.112305,334.367401 465.261444,334.995972 
	C465.295471,342.331146 465.329529,349.666351 465.346619,357.465515 
z"/>
	<path fill="#070602" opacity="1.000000" stroke="none" d="
M163.947906,293.540924 
	C171.000900,293.526367 178.053909,293.511810 185.534317,293.890320 
	C185.982971,294.532104 186.004196,294.780823 186.025406,295.029572 
	C185.835587,297.810852 185.491867,300.591553 185.481628,303.373505 
	C185.426773,318.292725 185.372803,333.213135 185.534302,348.130798 
	C185.561630,350.655243 186.639816,353.168304 187.559021,356.243988 
	C187.856918,357.417236 187.828232,358.033112 187.799561,358.649048 
	C179.572601,358.657501 171.345642,358.665955 162.661270,358.358154 
	C162.190262,357.442810 162.176651,356.843781 162.163055,356.244720 
	C162.921692,354.154633 164.321442,352.069763 164.338364,349.973663 
	C164.483795,331.955017 164.379440,313.934326 164.178131,295.108032 
	C163.987030,294.048218 163.967468,293.794556 163.947906,293.540924 
z"/>
	<path fill="#080702" opacity="1.000000" stroke="none" d="
M336.319427,335.399536 
	C333.947113,341.965637 331.496735,348.505066 329.242157,355.111328 
	C328.378479,357.642151 327.147217,358.760254 324.258362,358.804474 
	C321.159851,358.851929 320.251343,357.153564 319.434235,354.853180 
	C314.263733,340.296356 309.096863,325.738190 303.884796,311.196228 
	C302.707184,307.910583 301.280060,304.714325 300.104340,301.428040 
	C298.694763,297.488007 296.331543,294.800385 291.883453,293.997864 
	C303.814575,293.997864 315.745728,293.997864 328.714569,293.997864 
	C321.418518,296.256195 321.052490,296.690582 323.160095,302.973297 
	C326.171631,311.950684 329.456818,320.836273 332.716187,330.492493 
	C333.977936,332.615814 335.148682,334.007660 336.319427,335.399536 
z"/>
	<path fill="#050501" opacity="1.000000" stroke="none" d="
M47.660099,358.632477 
	C47.209652,358.040283 47.214584,357.448242 47.194275,356.557587 
	C47.866104,355.462677 48.563179,354.666382 49.706146,353.345459 
	C50.310894,352.184570 50.607208,351.548615 50.608505,350.912109 
	C50.641811,334.546448 50.664799,318.180695 50.603680,301.815277 
	C50.599831,300.784729 49.897846,299.756805 49.520653,298.727661 
	C48.213692,297.584259 46.906731,296.440887 45.351601,294.911469 
	C45.168919,294.191406 45.234413,293.857330 45.299911,293.523285 
	C53.565849,293.516083 61.831791,293.508850 70.593613,293.913818 
	C71.111755,294.595459 71.134018,294.864929 71.034363,295.580231 
	C70.921951,305.384888 70.931458,314.743683 70.921555,324.449341 
	C70.972588,325.253326 71.043030,325.710419 71.019417,326.617310 
	C70.990044,337.006134 71.054726,346.945190 71.037392,357.175995 
	C70.903610,357.864410 70.851845,358.261078 70.800072,358.657715 
	C63.238541,358.649384 55.677010,358.641022 47.660099,358.632477 
z"/>
	<path fill="#070602" opacity="1.000000" stroke="none" d="
M360.455688,355.858765 
	C359.888153,354.270996 359.320587,352.683228 358.808807,350.351440 
	C357.778870,347.015472 356.693115,344.423492 355.607361,341.831543 
	C354.915253,339.984375 354.223145,338.137207 353.609436,335.554413 
	C352.692993,332.488159 351.698181,330.157532 350.703369,327.826904 
	C350.321777,326.967529 349.940155,326.108185 349.636444,324.507019 
	C346.909668,317.808807 344.104980,311.852325 341.300323,305.895844 
	C339.619965,300.881714 338.925934,295.084320 332.022858,293.844482 
	C344.464783,293.844482 356.906708,293.844482 369.437347,293.844482 
	C367.076752,295.183258 363.776215,295.952667 363.022156,297.775513 
	C362.173584,299.826752 363.275726,302.948853 364.132141,305.393982 
	C367.193237,314.133850 370.509796,322.784271 373.832764,332.189270 
	C377.815094,335.932159 373.738770,339.189362 374.213562,342.312073 
	C372.908722,346.049316 371.333923,349.718536 370.370392,353.541779 
	C369.276367,357.883057 366.921417,359.608978 362.244568,358.099396 
	C361.430634,357.019897 360.943146,356.439331 360.455688,355.858765 
z"/>
	<path fill="#090902" opacity="1.000000" stroke="none" d="
M242.007248,358.802063 
	C226.788925,355.613647 215.821381,342.809509 215.301132,327.623871 
	C214.730865,310.977936 224.170029,298.372528 241.583221,293.605286 
	C243.987747,293.900299 245.657684,294.096710 247.030640,294.485931 
	C244.524994,298.708435 240.875061,302.573486 240.392197,306.800323 
	C239.196274,317.269653 238.700516,327.954254 239.399673,338.454071 
	C239.819138,344.753784 243.012985,350.868744 245.016357,357.294556 
	C244.050919,357.948914 243.029083,358.375488 242.007248,358.802063 
z"/>
	<path fill="#0A0A02" opacity="1.000000" stroke="none" d="
M261.771667,358.411072 
	C260.117645,358.786072 258.463654,359.161072 256.428741,359.185516 
	C256.070435,358.308258 256.093018,357.781616 256.377502,357.034607 
	C258.372223,353.491455 261.340637,350.266632 261.613220,346.828094 
	C262.540833,335.127136 262.912292,323.343292 262.690094,311.606384 
	C262.579559,305.767761 261.647278,299.619263 257.004028,294.804871 
	C257.936523,294.053894 258.682068,293.679382 259.427582,293.304901 
	C272.773407,296.285980 281.835693,303.978943 285.655579,317.802307 
	C285.791901,318.963135 286.072357,319.601562 286.352783,320.240021 
	C286.457794,320.635529 286.562805,321.031006 286.474854,322.042969 
	C286.412201,325.094696 286.542511,327.529999 286.672852,329.965271 
	C286.624817,330.366486 286.576813,330.767670 286.200134,331.538391 
	C285.852692,332.599762 285.833832,333.291626 285.814972,333.983521 
	C284.526215,340.839569 280.625549,346.099182 275.020905,350.859253 
	C273.908112,351.609406 273.385406,352.178284 272.862701,352.747162 
	C270.249664,354.238525 267.636658,355.729889 264.389526,357.171173 
	C263.094147,357.551056 262.432892,357.981049 261.771667,358.411072 
z"/>
	<path fill="#000000" opacity="1.000000" stroke="none" d="
M80.996628,293.842773 
	C83.709328,293.808289 86.422035,293.773773 89.689781,294.228699 
	C91.196182,294.773376 92.147530,294.828583 93.098885,294.883789 
	C93.831512,294.901703 94.564133,294.919586 95.701622,295.302002 
	C96.737900,295.777039 97.369316,295.887512 98.000732,295.998016 
	C99.284409,296.705200 100.568092,297.412384 102.015442,298.750977 
	C102.812881,299.921021 103.446655,300.459656 104.080429,300.998291 
	C104.080429,300.998291 104.277260,301.066071 104.236992,301.580200 
	C105.059837,304.064362 105.922943,306.034424 106.786049,308.004486 
	C106.888229,309.080322 106.990410,310.156158 106.655121,311.695435 
	C106.133514,313.101654 106.049385,314.044464 105.965256,314.987274 
	C104.432098,321.355225 99.038239,322.610596 93.250931,323.887695 
	C91.790230,323.437927 90.927475,323.237213 89.770424,323.065735 
	C88.985435,323.392914 88.494736,323.690826 87.698730,324.071228 
	C87.668266,325.021088 87.988014,326.651184 88.210999,326.638031 
	C90.504562,326.502991 92.782463,326.101959 95.064735,325.775085 
	C96.112015,325.875336 97.159302,325.975555 98.681282,326.526245 
	C102.097565,328.652496 105.039146,330.328278 107.980728,332.004028 
	C107.980728,332.004028 108.264755,332.126862 108.225815,332.703369 
	C108.363129,337.939667 108.966026,342.639069 108.539047,347.242889 
	C108.319374,349.611542 106.264648,351.809967 105.039154,354.085327 
	C104.635521,354.453552 104.231880,354.821747 103.279213,355.268219 
	C102.079315,355.776459 101.428436,356.206421 100.777557,356.636414 
	C99.869873,356.895874 98.962189,357.155365 97.340874,357.311157 
	C96.089767,357.174347 95.552307,357.141235 94.834030,356.919556 
	C94.102875,357.149963 93.552513,357.568970 93.002151,357.987946 
	C90.944801,358.181091 88.887459,358.374268 86.299973,358.121948 
	C85.487175,357.023834 85.204514,356.371185 85.038681,355.451721 
	C85.789429,354.460205 86.423355,353.735565 87.392860,352.929382 
	C88.158966,350.566650 88.589485,348.285461 88.978775,345.555054 
	C88.974846,342.399750 89.012131,339.693756 89.225861,336.824554 
	C89.089981,336.084625 88.777664,335.507904 88.265686,334.657806 
	C87.589111,333.136566 87.112198,331.888672 86.704079,330.249176 
	C85.945992,329.036835 85.119110,328.216064 83.977280,327.325409 
	C82.447090,326.808868 81.231857,326.362183 80.049545,325.624451 
	C80.065544,324.944214 80.048637,324.555084 80.297104,323.946167 
	C82.134499,322.165588 83.706512,320.604828 85.559387,318.972290 
	C85.976006,317.952118 86.111771,317.003632 86.210976,315.593506 
	C86.186546,311.736572 86.198677,308.341339 86.391479,304.781067 
	C86.188652,304.056366 85.805145,303.496674 85.275238,302.608215 
	C83.757202,300.169891 82.385574,298.060272 81.012466,295.599365 
	C81.006210,294.779602 81.001419,294.311188 80.996628,293.842773 
z"/>
	<path fill="#080702" opacity="1.000000" stroke="none" d="
M142.341766,339.967468 
	C141.522751,341.718506 140.750916,344.032257 139.876755,344.071625 
	C133.125000,344.375336 126.353447,344.238922 119.277397,344.238922 
	C119.277397,339.338257 119.277397,334.957214 119.277397,330.242065 
	C126.822548,330.242065 134.201935,330.242065 142.341537,330.242065 
	C142.341537,333.309631 142.341537,336.393127 142.341766,339.967468 
z"/>
	<path fill="#090902" opacity="1.000000" stroke="none" d="
M190.268829,293.530151 
	C196.399857,293.530151 202.530869,293.530151 209.478973,293.530151 
	C209.478973,302.389984 209.478973,310.804047 209.118912,319.522552 
	C208.075745,319.650330 207.392639,319.473663 206.709534,319.296997 
	C202.258072,310.685272 198.835205,301.379547 190.310608,294.948608 
	C190.134888,294.206635 190.201859,293.868408 190.268829,293.530151 
z"/>
	<path fill="#161405" opacity="1.000000" stroke="none" d="
M158.956421,294.936432 
	C152.913712,303.671997 146.871017,312.407593 141.000519,320.894257 
	C141.000519,312.534363 141.000519,303.362823 141.000519,293.437836 
	C146.654846,293.437836 152.389572,293.437836 158.528046,293.821777 
	C158.939987,294.449280 158.948196,294.692871 158.956421,294.936432 
z"/>
	<path fill="#4A4411" opacity="1.000000" stroke="none" d="
M341.415955,306.280334 
	C344.104980,311.852325 346.909668,317.808807 349.593079,324.154541 
	C348.131714,321.623016 346.791656,318.702179 344.873474,314.521210 
	C341.925354,322.044281 339.393738,328.504486 336.590759,335.182098 
	C335.148682,334.007660 333.977936,332.615814 332.804138,330.870911 
	C333.835785,329.803162 335.406158,329.313110 335.815887,328.336273 
	C338.032288,323.051300 340.136353,317.701904 341.883881,312.248047 
	C342.413788,310.594391 341.684235,308.537170 341.415955,306.280334 
z"/>
	<path fill="#726A1B" opacity="1.000000" stroke="none" d="
M49.403923,299.200439 
	C49.897846,299.756805 50.599831,300.784729 50.603680,301.815277 
	C50.664799,318.180695 50.641811,334.546448 50.608505,350.912109 
	C50.607208,351.548615 50.310894,352.184570 49.857464,353.057892 
	C49.470985,335.421082 49.379089,317.547150 49.403923,299.200439 
z"/>
	<path fill="#6A6119" opacity="1.000000" stroke="none" d="
M465.476196,334.646210 
	C464.112305,334.367401 462.963135,333.738861 461.797241,332.757751 
	C462.356964,330.843903 463.396973,329.293243 463.432922,327.719635 
	C463.630615,319.061127 463.582764,310.397034 464.031860,301.219879 
	C464.957977,300.467316 465.471466,300.229736 465.984924,299.992126 
	C465.886932,311.426910 465.788940,322.861664 465.476196,334.646210 
z"/>
	<path fill="#413B0F" opacity="1.000000" stroke="none" d="
M374.485840,342.096588 
	C373.738770,339.189362 377.815094,335.932159 373.919373,332.557495 
	C374.864624,331.070862 376.184998,330.085358 376.726624,328.777374 
	C379.249603,322.684082 381.557281,316.501648 384.725220,310.217346 
	C385.875427,310.129669 386.242340,310.175720 386.609314,310.221771 
	C382.658905,320.774902 378.708496,331.328003 374.485840,342.096588 
z"/>
	<path fill="#4A4411" opacity="1.000000" stroke="none" d="
M410.710327,304.365417 
	C411.875610,304.432190 412.893250,304.877991 413.945374,305.678284 
	C413.402740,307.470520 412.339233,308.903259 412.324249,310.346863 
	C412.186859,323.585083 412.231354,336.825226 411.909790,350.723206 
	C411.026672,351.907135 410.456604,352.432617 409.886536,352.958130 
	C410.111938,336.886902 410.337311,320.815643 410.710327,304.365417 
z"/>
	<path fill="#211E08" opacity="1.000000" stroke="none" d="
M384.984070,308.442688 
	C385.373566,307.016205 385.753723,305.587128 386.154175,304.163727 
	C388.115906,297.190979 387.135345,295.745605 379.553375,294.676270 
	C379.370270,294.095184 379.378754,293.779816 379.242584,293.460571 
	C384.894623,293.434875 390.546661,293.409210 396.517395,293.710449 
	C396.794708,294.487885 396.753296,294.938385 396.711884,295.388855 
	C394.839417,296.719147 392.966919,298.049408 390.571777,299.801117 
	C389.862518,301.049316 389.675995,301.876068 389.489441,302.702850 
	C388.676178,304.916626 387.862915,307.130402 386.451416,309.253296 
	C385.563477,308.922485 385.273773,308.682587 384.984070,308.442688 
z"/>
	<path fill="#211E08" opacity="1.000000" stroke="none" d="
M409.680420,353.237061 
	C410.456604,352.432617 411.026672,351.907135 411.813110,351.182312 
	C413.715302,352.789307 415.401154,354.595673 417.396973,356.822449 
	C417.760986,357.725769 417.815063,358.208740 417.869141,358.691681 
	C413.593750,358.712738 409.318359,358.733795 404.633484,358.479431 
	C404.232086,357.712128 404.240173,357.220276 404.248291,356.728394 
	C405.990295,355.657593 407.732300,354.586792 409.680420,353.237061 
z"/>
	<path fill="#161405" opacity="1.000000" stroke="none" d="
M466.133972,299.686707 
	C465.471466,300.229736 464.957977,300.467316 464.201416,300.852295 
	C463.092621,297.180389 460.558075,295.374847 456.480774,294.753540 
	C456.353912,294.140137 456.372467,293.822021 456.227844,293.494354 
	C460.881073,293.477783 465.534271,293.461212 470.499817,293.784363 
	C470.787476,294.565338 470.762817,295.006592 470.738190,295.447815 
	C469.253143,296.759003 467.768097,298.070160 466.133972,299.686707 
z"/>
	<path fill="#211E08" opacity="1.000000" stroke="none" d="
M105.377411,354.030884 
	C106.264648,351.809967 108.319374,349.611542 108.539047,347.242889 
	C108.966026,342.639069 108.363129,337.939667 108.234818,332.857849 
	C113.158859,339.575256 112.210297,347.534698 105.377411,354.030884 
z"/>
	<path fill="#6F661A" opacity="1.000000" stroke="none" d="
M259.191589,293.020844 
	C258.682068,293.679382 257.936523,294.053894 256.606598,294.783630 
	C253.124008,294.856964 250.225815,294.575012 247.327637,294.293091 
	C245.657684,294.096710 243.987747,293.900299 241.959137,293.551758 
	C247.385544,293.178711 253.170578,292.957764 259.191589,293.020844 
z"/>
	<path fill="#655D17" opacity="1.000000" stroke="none" d="
M256.115631,357.254944 
	C256.093018,357.781616 256.070435,358.308258 256.005432,359.228149 
	C251.529327,359.519043 247.095627,359.416687 242.334579,359.058167 
	C243.029083,358.375488 244.050919,357.948914 245.424545,357.252197 
	C249.222763,357.073029 252.669189,357.164001 256.115631,357.254944 
z"/>
	<path fill="#211E08" opacity="1.000000" stroke="none" d="
M90.064728,323.036499 
	C90.927475,323.237213 91.790230,323.437927 92.864052,323.902405 
	C93.695450,324.518646 94.315781,324.871094 95.000427,325.499329 
	C92.782463,326.101959 90.504562,326.502991 88.210999,326.638031 
	C87.988014,326.651184 87.668266,325.021088 87.885223,324.256622 
	C88.939590,323.918488 89.502159,323.477478 90.064728,323.036499 
z"/>
	<path fill="#726A1B" opacity="1.000000" stroke="none" d="
M161.755157,356.200592 
	C162.176651,356.843781 162.190262,357.442810 162.206116,358.345337 
	C159.445282,358.648773 156.682190,358.648773 153.919098,358.648773 
	C153.872208,358.244263 153.825317,357.839752 153.778427,357.435211 
	C156.301376,357.008972 158.824310,356.582703 161.755157,356.200592 
z"/>
	<path fill="#726A1B" opacity="1.000000" stroke="none" d="
M188.228180,358.795074 
	C187.828232,358.033112 187.856918,357.417236 187.881012,356.487793 
	C190.518188,356.502838 193.159912,356.831390 195.801651,357.159943 
	C195.788712,357.753662 195.775787,358.347412 195.762863,358.941132 
	C193.394180,358.941132 191.025497,358.941132 188.228180,358.795074 
z"/>
	<path fill="#726A1B" opacity="1.000000" stroke="none" d="
M71.249763,358.812744 
	C70.851845,358.261078 70.903610,357.864410 71.482246,357.157745 
	C74.985603,356.869690 77.962090,356.891663 81.001572,357.210022 
	C81.088509,357.907562 81.112450,358.308716 81.136398,358.709839 
	C77.990753,358.795807 74.845100,358.881775 71.249763,358.812744 
z"/>
	<path fill="#211E08" opacity="1.000000" stroke="none" d="
M107.926270,331.669922 
	C105.039146,330.328278 102.097565,328.652496 99.050491,326.666962 
	C101.920601,328.016724 104.896210,329.676270 107.926270,331.669922 
z"/>
	<path fill="#655D17" opacity="1.000000" stroke="none" d="
M286.901428,329.670227 
	C286.542511,327.529999 286.412201,325.094696 286.485352,322.350586 
	C286.835907,324.486206 286.982971,326.930664 286.901428,329.670227 
z"/>
	<path fill="#6A6119" opacity="1.000000" stroke="none" d="
M403.878601,356.599243 
	C404.240173,357.220276 404.232086,357.712128 404.179443,358.446899 
	C401.975494,358.689819 399.816132,358.689819 397.656799,358.689819 
	C397.623413,358.185364 397.590027,357.680878 397.556671,357.176422 
	C399.540741,356.940979 401.524841,356.705536 403.878601,356.599243 
z"/>
	<path fill="#4A4411" opacity="1.000000" stroke="none" d="
M355.568970,342.194824 
	C356.693115,344.423492 357.778870,347.015472 358.783630,349.991211 
	C357.645294,347.769379 356.587921,345.163757 355.568970,342.194824 
z"/>
	<path fill="#6F661A" opacity="1.000000" stroke="none" d="
M471.125977,295.551636 
	C470.762817,295.006592 470.787476,294.565338 470.960968,293.824097 
	C472.988068,293.420776 474.866302,293.317474 476.744537,293.214203 
	C476.787292,293.767059 476.830048,294.319916 476.872803,294.872772 
	C475.086456,295.133667 473.300110,295.394531 471.125977,295.551636 
z"/>
	<path fill="#79701C" opacity="1.000000" stroke="none" d="
M71.156281,295.134399 
	C71.134018,294.864929 71.111755,294.595459 71.064308,293.921204 
	C73.204735,293.386993 75.370354,293.257568 77.976608,293.546082 
	C78.329391,294.257904 78.228943,294.547394 77.694397,294.960571 
	C75.234032,295.103912 73.195152,295.119141 71.156281,295.134399 
z"/>
	<path fill="#6A6119" opacity="1.000000" stroke="none" d="
M418.266907,358.813293 
	C417.815063,358.208740 417.760986,357.725769 417.719849,356.999451 
	C419.677704,356.905487 421.622589,357.054932 423.567474,357.204376 
	C423.560516,357.781219 423.553558,358.358063 423.546600,358.934906 
	C421.919312,358.934906 420.291992,358.934906 418.266907,358.813293 
z"/>
	<path fill="#4A4411" opacity="1.000000" stroke="none" d="
M350.625671,328.178802 
	C351.698181,330.157532 352.692993,332.488159 353.572144,335.188751 
	C352.487000,333.216034 351.517456,330.873383 350.625671,328.178802 
z"/>
	<path fill="#79701C" opacity="1.000000" stroke="none" d="
M397.092834,295.489746 
	C396.753296,294.938385 396.794708,294.487885 396.985382,293.731995 
	C398.888458,293.324615 400.642273,293.222626 402.672424,293.319611 
	C402.952454,293.770325 402.956116,294.022095 402.967407,294.651489 
	C401.141266,295.216278 399.307495,295.403473 397.092834,295.489746 
z"/>
	<path fill="#211E08" opacity="1.000000" stroke="none" d="
M81.487106,358.733704 
	C81.112450,358.308716 81.088509,357.907562 81.321671,357.074524 
	C82.693146,356.334595 83.807510,356.026581 84.921867,355.718567 
	C85.204514,356.371185 85.487175,357.023834 85.865936,358.018768 
	C84.587303,358.493256 83.212555,358.625427 81.487106,358.733704 
z"/>
	<path fill="#79701C" opacity="1.000000" stroke="none" d="
M44.913818,293.327576 
	C45.234413,293.857330 45.168919,294.191406 45.036446,294.779541 
	C43.167496,295.033630 41.365524,295.033630 39.563557,295.033630 
	C39.551483,294.478760 39.539410,293.923920 39.527336,293.369049 
	C41.194134,293.290009 42.860931,293.210938 44.913818,293.327576 
z"/>
	<path fill="#060501" opacity="1.000000" stroke="none" d="
M106.882050,307.638550 
	C105.922943,306.034424 105.059837,304.064362 104.223396,301.683380 
	C105.159393,303.272491 106.068718,305.272552 106.882050,307.638550 
z"/>
	<path fill="#726A1B" opacity="1.000000" stroke="none" d="
M159.366043,295.026367 
	C158.948196,294.692871 158.939987,294.449280 159.000000,293.846436 
	C160.527145,293.369965 161.986069,293.252808 163.696442,293.338287 
	C163.967468,293.794556 163.987030,294.048218 163.975098,294.682129 
	C162.554306,295.080353 161.164978,295.098328 159.366043,295.026367 
z"/>
	<path fill="#060501" opacity="1.000000" stroke="none" d="
M78.115875,294.832520 
	C78.228943,294.547394 78.329391,294.257904 78.361107,293.740723 
	C79.042282,293.532867 79.779602,293.548309 80.756775,293.703247 
	C81.001419,294.311188 81.006210,294.779602 80.686447,295.660034 
	C79.613220,295.658905 78.864548,295.245728 78.115875,294.832520 
z"/>
	<path fill="#726A1B" opacity="1.000000" stroke="none" d="
M189.945953,293.339386 
	C190.201859,293.868408 190.134888,294.206635 190.009079,294.801636 
	C188.901642,295.096985 187.853058,295.135559 186.414932,295.101868 
	C186.004196,294.780823 185.982971,294.532104 186.005219,293.911438 
	C187.240173,293.409180 188.431641,293.278900 189.945953,293.339386 
z"/>
	<path fill="#6F661A" opacity="1.000000" stroke="none" d="
M455.882019,293.321899 
	C456.372467,293.822021 456.353912,294.140137 456.110260,294.686859 
	C454.872986,294.924988 453.697601,294.924988 452.522217,294.924988 
	C452.477844,294.515106 452.433441,294.105225 452.389038,293.695343 
	C453.438110,293.513397 454.487183,293.331421 455.882019,293.321899 
z"/>
	<path fill="#726A1B" opacity="1.000000" stroke="none" d="
M206.700714,319.634644 
	C207.392639,319.473663 208.075745,319.650330 209.095169,319.936646 
	C209.261337,320.663971 209.091187,321.281616 208.921036,321.899261 
	C208.177979,321.256927 207.434937,320.614624 206.700714,319.634644 
z"/>
	<path fill="#79701C" opacity="1.000000" stroke="none" d="
M92.978287,294.604645 
	C92.147530,294.828583 91.196182,294.773376 90.122604,294.367981 
	C90.952812,294.120361 91.905251,294.222931 92.978287,294.604645 
z"/>
	<path fill="#211E08" opacity="1.000000" stroke="none" d="
M93.164230,358.162231 
	C93.552513,357.568970 94.102875,357.149963 94.787369,357.105103 
	C94.748550,357.692261 94.685699,357.933960 94.732948,358.204315 
	C94.264069,358.248383 93.795181,358.292450 93.164230,358.162231 
z"/>
	<path fill="#060501" opacity="1.000000" stroke="none" d="
M106.246445,314.796021 
	C106.049385,314.044464 106.133514,313.101654 106.501198,312.077332 
	C106.699043,312.865448 106.613342,313.735077 106.246445,314.796021 
z"/>
	<path fill="#726A1B" opacity="1.000000" stroke="none" d="
M101.077614,356.727600 
	C101.428436,356.206421 102.079315,355.776459 103.036789,355.409607 
	C102.688148,355.921448 102.032913,356.370148 101.077614,356.727600 
z"/>
	<path fill="#4A4411" opacity="1.000000" stroke="none" d="
M360.421539,356.164429 
	C360.943146,356.439331 361.430634,357.019897 361.890442,357.907898 
	C361.371002,357.633545 360.879211,357.051819 360.421539,356.164429 
z"/>
	<path fill="#655D17" opacity="1.000000" stroke="none" d="
M273.170044,352.752136 
	C273.385406,352.178284 273.908112,351.609406 274.740784,351.040283 
	C274.526276,351.612396 274.001831,352.184753 273.170044,352.752136 
z"/>
	<path fill="#726A1B" opacity="1.000000" stroke="none" d="
M95.005157,358.345490 
	C94.685699,357.933960 94.748550,357.692261 94.968178,357.293671 
	C95.552307,357.141235 96.089767,357.174347 96.992111,357.380981 
	C96.663788,357.865234 95.970581,358.175964 95.005157,358.345490 
z"/>
	<path fill="#655D17" opacity="1.000000" stroke="none" d="
M262.061768,358.498657 
	C262.432892,357.981049 263.094147,357.551056 264.047729,357.249329 
	C263.677307,357.780487 263.014587,358.183380 262.061768,358.498657 
z"/>
	<path fill="#655D17" opacity="1.000000" stroke="none" d="
M286.045288,333.760834 
	C285.833832,333.291626 285.852692,332.599762 286.097595,331.824524 
	C286.307648,332.340179 286.291626,332.939178 286.045288,333.760834 
z"/>
	<path fill="#060501" opacity="1.000000" stroke="none" d="
M104.038872,300.675598 
	C103.446655,300.459656 102.812881,299.921021 102.143585,299.046692 
	C102.737816,299.258301 103.367569,299.805603 104.038872,300.675598 
z"/>
	<path fill="#413B0F" opacity="1.000000" stroke="none" d="
M389.705505,302.482422 
	C389.675995,301.876068 389.862518,301.049316 390.359131,300.083435 
	C390.419983,300.716888 390.170776,301.489410 389.705505,302.482422 
z"/>
	<path fill="#655D17" opacity="1.000000" stroke="none" d="
M286.501648,319.955994 
	C286.072357,319.601562 285.791901,318.963135 285.688599,318.170593 
	C286.127350,318.568298 286.388916,319.120117 286.501648,319.955994 
z"/>
	<path fill="#060501" opacity="1.000000" stroke="none" d="
M97.861504,295.725098 
	C97.369316,295.887512 96.737900,295.777039 96.051483,295.412262 
	C96.571747,295.256042 97.147011,295.354095 97.861504,295.725098 
z"/>
	<path fill="#6A6119" opacity="1.000000" stroke="none" d="
M459.912842,329.749878 
	C459.319580,329.527496 458.729889,328.992218 458.160339,328.134644 
	C458.759155,328.353882 459.337769,328.895447 459.912842,329.749878 
z"/>
	<path fill="#79701C" opacity="1.000000" stroke="none" d="
M378.942566,293.412903 
	C379.378754,293.779816 379.370270,294.095184 379.153931,294.640442 
	C378.941345,294.371246 378.791931,293.868256 378.942566,293.412903 
z"/>
	<path fill="#211E08" opacity="1.000000" stroke="none" d="
M386.645142,310.159912 
	C386.242340,310.175720 385.875427,310.129669 384.960999,309.993225 
	C384.477295,309.548126 384.541046,309.193359 384.794434,308.640656 
	C385.273773,308.682587 385.563477,308.922485 386.254089,309.559937 
	C386.655029,309.957458 386.680969,310.098053 386.645142,310.159912 
z"/>
	<path fill="#F6E33A" opacity="1.000000" stroke="none" d="
M85.038696,355.451721 
	C83.807510,356.026581 82.693146,356.334595 81.258682,356.778137 
	C77.962090,356.891663 74.985603,356.869690 71.564262,356.865967 
	C71.054726,346.945190 70.990044,337.006134 71.442482,326.625793 
	C73.647072,326.096954 75.334534,326.009399 77.394775,325.994598 
	C78.517242,326.016724 79.266937,325.966125 80.016624,325.915497 
	C81.231857,326.362183 82.447090,326.808868 84.092285,327.643494 
	C85.226593,328.901245 85.930931,329.771027 86.635284,330.640778 
	C87.112198,331.888672 87.589111,333.136566 88.210602,334.933258 
	C88.586601,335.983948 88.818024,336.485840 89.049431,336.987732 
	C89.012131,339.693756 88.974846,342.399750 88.790634,345.860840 
	C88.114899,348.747589 87.586082,350.879242 87.057281,353.010925 
	C86.423355,353.735565 85.789429,354.460205 85.038696,355.451721 
z"/>
	<path fill="#F7E43A" opacity="1.000000" stroke="none" d="
M77.694389,294.960602 
	C78.864548,295.245728 79.613220,295.658905 80.687912,296.011383 
	C82.385574,298.060272 83.757202,300.169891 85.231750,302.896179 
	C85.626709,303.990631 85.918755,304.468353 86.210800,304.946075 
	C86.198677,308.341339 86.186546,311.736572 85.979004,315.825867 
	C85.615234,317.361267 85.446884,318.202637 85.278534,319.044037 
	C83.706512,320.604828 82.134499,322.165588 79.920349,323.880554 
	C78.553307,324.254608 77.828400,324.474548 76.680023,324.562195 
	C74.484688,324.320770 72.712822,324.211639 70.940964,324.102509 
	C70.931458,314.743683 70.921951,305.384888 71.034363,295.580231 
	C73.195152,295.119141 75.234032,295.103912 77.694389,294.960602 
z"/>
	<path fill="#4A4411" opacity="1.000000" stroke="none" d="
M70.921555,324.449341 
	C72.712822,324.211639 74.484688,324.320770 76.689331,324.767883 
	C77.057648,325.374054 77.024277,325.646057 77.022003,325.921875 
	C75.334534,326.009399 73.647072,326.096954 71.536537,326.176025 
	C71.043030,325.710419 70.972588,325.253326 70.921555,324.449341 
z"/>
	<path fill="#F8E53A" opacity="1.000000" stroke="none" d="
M256.377502,357.034607 
	C252.669189,357.164001 249.222763,357.073029 245.368134,357.024414 
	C243.012985,350.868744 239.819138,344.753784 239.399673,338.454071 
	C238.700516,327.954254 239.196274,317.269653 240.392197,306.800323 
	C240.875061,302.573486 244.524994,298.708435 247.030640,294.485901 
	C250.225815,294.575012 253.124008,294.856964 256.419617,295.160156 
	C261.647278,299.619263 262.579559,305.767761 262.690094,311.606384 
	C262.912292,323.343292 262.540833,335.127136 261.613220,346.828094 
	C261.340637,350.266632 258.372223,353.491455 256.377502,357.034607 
z"/>
	<path fill="#211E08" opacity="1.000000" stroke="none" d="
M87.392853,352.929382 
	C87.586082,350.879242 88.114899,348.747589 88.831856,346.310120 
	C88.589485,348.285461 88.158966,350.566650 87.392853,352.929382 
z"/>
	<path fill="#211E08" opacity="1.000000" stroke="none" d="
M77.394775,325.994629 
	C77.024277,325.646057 77.057648,325.374054 77.112801,324.900177 
	C77.828400,324.474548 78.553307,324.254608 79.654968,324.100311 
	C80.048637,324.555084 80.065544,324.944214 80.049545,325.624451 
	C79.266937,325.966125 78.517242,326.016724 77.394775,325.994629 
z"/>
	<path fill="#211E08" opacity="1.000000" stroke="none" d="
M85.559387,318.972290 
	C85.446884,318.202637 85.615234,317.361267 86.015564,316.287537 
	C86.111771,317.003632 85.976006,317.952118 85.559387,318.972290 
z"/>
	<path fill="#211E08" opacity="1.000000" stroke="none" d="
M86.704071,330.249176 
	C85.930931,329.771027 85.226593,328.901245 84.407242,327.713379 
	C85.119110,328.216064 85.945992,329.036835 86.704071,330.249176 
z"/>
	<path fill="#211E08" opacity="1.000000" stroke="none" d="
M86.391479,304.781067 
	C85.918755,304.468353 85.626709,303.990631 85.378159,303.224915 
	C85.805145,303.496674 86.188652,304.056366 86.391479,304.781067 
z"/>
	<path fill="#060501" opacity="1.000000" stroke="none" d="
M89.770432,323.065735 
	C89.502159,323.477478 88.939590,323.918488 88.190529,324.174103 
	C88.494736,323.690826 88.985435,323.392914 89.770432,323.065735 
z"/>
	<path fill="#211E08" opacity="1.000000" stroke="none" d="
M89.225868,336.824554 
	C88.818024,336.485840 88.586601,335.983948 88.410263,335.206604 
	C88.777664,335.507904 89.089981,336.084625 89.225868,336.824554 
z"/>
</svg>