<?xml version="1.0" standalone="no"?>
<!DOCTYPE svg PUBLIC "-//W3C//DTD SVG 20010904//EN"
 "http://www.w3.org/TR/2001/REC-SVG-20010904/DTD/svg10.dtd">
<svg version="1.0" xmlns="http://www.w3.org/2000/svg"
 width="225.000000pt" height="225.000000pt" viewBox="0 0 225.000000 225.000000"
 preserveAspectRatio="xMidYMid meet">

<g transform="translate(0.000000,225.000000) scale(0.100000,-0.100000)"
fill="#000000" stroke="none">
<path d="M1063 1591 c-284 -6 -303 -7 -329 -27 -15 -11 -37 -33 -48 -48 -20
-26 -21 -45 -27 -394 -6 -330 -5 -370 10 -396 22 -39 59 -65 107 -76 53 -13
670 -12 714 0 45 12 97 65 110 111 13 44 13 625 0 703 -10 62 -33 97 -80 121
-27 14 -25 14 -457 6z m-93 -266 c0 -8 -7 -15 -15 -15 -31 0 -25 -31 33 -165
l60 -137 31 58 c17 32 31 65 30 73 0 9 -17 50 -37 91 -28 56 -43 76 -61 80
-14 3 -26 11 -29 18 -3 9 18 12 77 12 65 0 81 -3 81 -15 0 -8 -4 -15 -10 -15
-15 0 -11 -31 9 -69 l19 -35 21 42 c26 51 26 62 1 62 -11 0 -20 7 -20 15 0 12
14 15 70 15 54 0 70 -3 70 -14 0 -8 -10 -16 -22 -18 -17 -2 -33 -22 -61 -75
l-38 -72 32 -68 31 -68 24 50 c12 28 39 87 58 133 34 80 35 83 16 95 -39 24
-23 37 45 37 68 0 79 -8 43 -32 -13 -9 -52 -84 -103 -204 -48 -109 -89 -190
-97 -192 -10 -2 -25 22 -47 75 -18 43 -37 82 -41 87 -5 5 -28 -29 -52 -78 -26
-54 -48 -86 -58 -86 -11 0 -40 55 -94 180 -55 127 -87 187 -107 204 -46 39
-37 46 56 46 69 0 85 -3 85 -15z"/>
</g>
</svg>
